<svg class="animated" id="freepik_stories-curiosity-brain" xmlns="http://www.w3.org/2000/svg" viewBox="0 0 500 500" version="1.1" xmlns:xlink="http://www.w3.org/1999/xlink" xmlns:svgjs="http://svgjs.com/svgjs"><style>svg#freepik_stories-curiosity-brain:not(.animated) .animable {opacity: 0;}svg#freepik_stories-curiosity-brain.animated #freepik--Floor--inject-39 {animation: 3s Infinite  linear shake;animation-delay: 0s;}svg#freepik_stories-curiosity-brain.animated #freepik--Shadow--inject-39 {animation: 3s Infinite  linear shake;animation-delay: 0s;}svg#freepik_stories-curiosity-brain.animated #freepik--Brain--inject-39 {animation: 3s Infinite  linear shake;animation-delay: 0s;}svg#freepik_stories-curiosity-brain.animated #freepik--Symbols--inject-39 {animation: 3s Infinite  linear shake;animation-delay: 0s;}svg#freepik_stories-curiosity-brain.animated #freepik--Dots--inject-39 {animation: 6s Infinite  linear spin;animation-delay: 0s;}svg#freepik_stories-curiosity-brain.animated #freepik--speech-bubble-4--inject-39 {animation: 3s Infinite  linear shake;animation-delay: 0s;}svg#freepik_stories-curiosity-brain.animated #freepik--speech-bubble-3--inject-39 {animation: 3s Infinite  linear shake;animation-delay: 0s;}svg#freepik_stories-curiosity-brain.animated #freepik--speech-bubble-2--inject-39 {animation: 3s Infinite  linear shake;animation-delay: 0s;}svg#freepik_stories-curiosity-brain.animated #freepik--speech-bubble-1--inject-39 {animation: 3s Infinite  linear shake;animation-delay: 0s;}            @keyframes shake {                10%, 90% {                    transform: translate3d(-1px, 0, 0);                  }                  20%, 80% {                    transform: translate3d(2px, 0, 0);                  }                  30%, 50%, 70% {                    transform: translate3d(-4px, 0, 0);                  }                  40%, 60% {                    transform: translate3d(4px, 0, 0);                  }            }                 @keyframes spin {             from {                 transform: rotate(0);               }               to {                 transform: rotate(360deg);               }         }     </style><g id="freepik--Floor--inject-39" class="animable" style="transform-origin: 249.995px 363.325px;"><path id="freepik--floor--inject-39" d="M101.63,277.67c-81.94,47.3-81.93,124,0,171.31s214.79,47.31,296.73,0,81.93-124,0-171.31S183.57,230.36,101.63,277.67Z" style="fill: rgb(250, 250, 250); transform-origin: 249.995px 363.325px;" class="animable"></path></g><g id="freepik--Shadow--inject-39" class="animable" style="transform-origin: 250px 400.37px;"><ellipse id="freepik--shadow--inject-39" cx="250" cy="400.37" rx="99.7" ry="57.56" style="fill: rgb(224, 224, 224); transform-origin: 250px 400.37px;" class="animable"></ellipse></g><g id="freepik--Brain--inject-39" class="animable" style="transform-origin: 259.901px 273.312px;"><g id="freepik--brain--inject-39" class="animable" style="transform-origin: 259.901px 273.312px;"><path d="M254.2,347.15c-6.95.35-9.95,1.31-8.22,8.53s2.55,12.83,2.55,12.83,12.36-.74,17.79-4.45S264.64,346.64,254.2,347.15Z" style="fill: #20BE4E; transform-origin: 256.845px 357.823px;" id="el1k5cr5w0fc" class="animable"></path><g id="elvg53b96y6k"><path d="M254.2,347.15c-6.95.35-9.95,1.31-8.22,8.53s2.55,12.83,2.55,12.83,12.36-.74,17.79-4.45S264.64,346.64,254.2,347.15Z" style="opacity: 0.5; transform-origin: 256.845px 357.823px;" class="animable" id="el5vjo9soxm1k"></path></g><path d="M258.12,378.49a7,7,0,0,1-7.59-7.71c1-9.25,2.12-16.42,3.13-22.76,1.47-9.23,2.63-16.52,2.83-26.68a67.5,67.5,0,0,0-12.05-38.85,7,7,0,1,1,11.35-8.19c3.57,4.94,15.16,23,14.69,47.31-.22,11.13-1.51,19.23-3,28.62-1,6.16-2.09,13.14-3,22A7,7,0,0,1,258.12,378.49Z" style="fill: rgb(55, 71, 79); transform-origin: 256.758px 324.892px;" id="elzdlqhzjgvtk" class="animable"></path><path d="M242.29,389.4s-.41,3,.31,4.09c1.13,1.72,6.69,3.45,9.61,4.37s6.19,2.35,9.63,7.46c3.68,5.47,9.77,8.86,16.4,10.72s16.09,2.3,26.82-1.42,10.6-10.38,10.6-10.38-.38-6.21-3.28-6.75S242.29,389.4,242.29,389.4Z" style="fill: rgb(69, 90, 100); transform-origin: 278.917px 403.419px;" id="elx6yth269klr" class="animable"></path><path d="M244.65,366a43.22,43.22,0,0,1-.81,5.89c-1.12,5.34-3.24,10.94-1.55,17.54,2.09,3.05,6,3.93,8.9,4.93,3.95,1.35,6.77,2.22,9.78,5.26,5.4,5.46,10.72,12.49,25.63,13.09s25.16-5.73,27.19-10.27-1-8-11.08-11.57c-5.11-1.8-17.12-10-18.51-11.1a23.88,23.88,0,0,1-3.5-3.68,24.21,24.21,0,0,1-4.82-9.47,34.72,34.72,0,0,1-.47-11.27c.1-.86.45-1.78,0-2.53-1.13-2-4.31-1.14-6.08-.84a58.86,58.86,0,0,0-7.82,2.07,4.61,4.61,0,0,0-2.28,1.22,4.78,4.78,0,0,0-.83,2.35c-.22,1.26-.48,2.52-.77,3.77a3.39,3.39,0,0,1-1.26,2.27,2.14,2.14,0,0,1-2.43-.37,3.83,3.83,0,0,1-1.12-2.33,25.59,25.59,0,0,1-.14-2.63,4.23,4.23,0,0,0-.69-2.39c-1.1-1.43-3.58-1.45-4.35-3.09a2.57,2.57,0,0,1,.51-2.7,4.48,4.48,0,0,1,2.53-1.32,20,20,0,0,1,2.88-.3l.33-2.07a12.58,12.58,0,0,0-6.63,1.44,6.13,6.13,0,0,0-2.81,3.17,8.83,8.83,0,0,0,.21,5C245.45,359.92,244.92,362.07,244.65,366Z" style="fill: #20BE4E; transform-origin: 278.023px 379.594px;" id="el0xuti2d7kxu" class="animable"></path><path d="M276.59,411s-1.69-10.39,8.34-17.68,17.22-4.74,20.93-2.86c4.42,2.23,11,7.3,8.28,12.18-3,5.27-8.61,8.44-19.71,10.32S276.59,411,276.59,411Z" style="fill: rgb(250, 250, 250); transform-origin: 295.631px 400.964px;" id="el3s47yco4z49" class="animable"></path><path d="M258.59,374.21a1.29,1.29,0,0,0,1-.49c1.31-1.7,9.7-7.86,16.67-5.7.14-.27.27-1.93-.59-2.36-9.27-1.46-16.55,4.56-18.13,6.61a1.19,1.19,0,0,0,.27,1.7A1.32,1.32,0,0,0,258.59,374.21Z" style="fill: rgb(250, 250, 250); transform-origin: 266.829px 369.822px;" id="ela33d0kd25m" class="animable"></path><path d="M279.73,374.86a3.43,3.43,0,0,0-1.31-2.41c-7.74-.41-15,5.08-16.51,7.06a1.18,1.18,0,0,0,.27,1.69,1.34,1.34,0,0,0,.76.24,1.29,1.29,0,0,0,1-.49C265.23,379.29,273.51,373.44,279.73,374.86Z" style="fill: rgb(250, 250, 250); transform-origin: 270.699px 376.934px;" id="el0retjcdu788a" class="animable"></path><path d="M292.32,385.19c-.19-.77-1.84-1.82-3.15-2-8.51.17-15.06,7.25-16.27,9.5a1.18,1.18,0,0,0,.55,1.63,1.32,1.32,0,0,0,.78.11,1.26,1.26,0,0,0,.93-.65C276.23,391.75,284.12,383.77,292.32,385.19Z" style="fill: rgb(250, 250, 250); transform-origin: 282.54px 388.819px;" id="elflaa2xk9xf7" class="animable"></path><path d="M268,388.4a1.3,1.3,0,0,0,1-.61c1.09-1.83,7.91-9,15.72-7.71,0-.67-1.52-1.87-2.22-2-7.64,0-14.43,6.37-15.7,8.51a1.18,1.18,0,0,0,.47,1.65A1.31,1.31,0,0,0,268,388.4Z" style="fill: rgb(250, 250, 250); transform-origin: 275.677px 383.242px;" id="ele5b936peq8c" class="animable"></path><path d="M212,364.79c-7,0-10,.88-8.56,8.17s2,12.93,2,12.93,12.38-.22,18-3.7S222.42,364.71,212,364.79Z" style="fill: #20BE4E; transform-origin: 214.288px 375.34px;" id="elw3l2c5henfh" class="animable"></path><g id="el9km2on9lyki"><path d="M212,364.79c-7,0-10,.88-8.56,8.17s2,12.93,2,12.93,12.38-.22,18-3.7S222.42,364.71,212,364.79Z" style="opacity: 0.5; transform-origin: 214.288px 375.34px;" class="animable" id="ell0egwumk9aq"></path></g><path d="M214.56,396.26a7,7,0,0,1-7.26-8c1.37-9.2,2.81-16.32,4.09-22.6,1.85-9.17,3.32-16.4,4-26.55a67.6,67.6,0,0,0-10.4-39.32,7,7,0,1,1,11.68-7.7c3.36,5.08,14.18,23.57,12.69,47.88-.69,11.12-2.32,19.16-4.21,28.47-1.24,6.11-2.64,13-4,21.88A7,7,0,0,1,214.56,396.26Z" style="fill: rgb(55, 71, 79); transform-origin: 216.591px 342.492px;" id="ellortx9agqjg" class="animable"></path><path d="M198.29,406.5s-.54,3,.14,4.09c1.06,1.77,6.53,3.74,9.42,4.77s6.08,2.61,9.31,7.87c3.44,5.61,9.38,9.25,15.93,11.4s16,3,26.86-.3,11-9.92,11-9.92-.12-6.22-3-6.88S198.29,406.5,198.29,406.5Z" style="fill: rgb(69, 90, 100); transform-origin: 234.518px 421.514px;" id="elnlgudwziib" class="animable"></path><path d="M201.64,383.19a44.88,44.88,0,0,1-1.07,5.85c-1.33,5.29-3.7,10.79-2.28,17.46,2,3.14,5.79,4.17,8.68,5.3,3.89,1.51,6.67,2.5,9.55,5.66,5.17,5.68,10.19,12.93,25.06,14.16s25.38-4.67,27.6-9.11-.69-8.07-10.59-12c-5-2-16.68-10.72-18-11.88a23.34,23.34,0,0,1-3.34-3.82,24,24,0,0,1-4.42-9.66,34.91,34.91,0,0,1,0-11.28c.13-.85.51-1.76.12-2.53-1.05-2-4.26-1.32-6-1.09A60.79,60.79,0,0,0,219,372a4.64,4.64,0,0,0-2.33,1.13,4.82,4.82,0,0,0-.93,2.31c-.27,1.26-.58,2.5-.93,3.74a3.35,3.35,0,0,1-1.35,2.21,2.14,2.14,0,0,1-2.41-.47,3.9,3.9,0,0,1-1-2.38,23.05,23.05,0,0,1,0-2.63,4.26,4.26,0,0,0-.59-2.41c-1-1.48-3.52-1.61-4.22-3.28a2.59,2.59,0,0,1,.62-2.68,4.5,4.5,0,0,1,2.59-1.21,22.35,22.35,0,0,1,2.89-.17l.42-2.06a12.69,12.69,0,0,0-6.69,1.16,6.1,6.1,0,0,0-2.94,3.05,8.87,8.87,0,0,0,0,5.06C202.68,377.17,202.07,379.3,201.64,383.19Z" style="fill: #20BE4E; transform-origin: 233.867px 397.911px;" id="el5x9myho9kir" class="animable"></path><path d="M231.65,429.52s-1.25-10.45,9.08-17.32,17.4-4,21-2c4.32,2.42,10.73,7.77,7.75,12.53-3.2,5.14-8.95,8.06-20.12,9.48S231.65,429.52,231.65,429.52Z" style="fill: rgb(250, 250, 250); transform-origin: 250.923px 420.187px;" id="eltfq7wo1j4r8" class="animable"></path><path d="M215.21,392a1.27,1.27,0,0,0,1-.44c1.38-1.65,10-7.45,16.9-5,.15-.26.35-1.91-.49-2.37-9.2-1.85-16.72,3.85-18.39,5.84a1.17,1.17,0,0,0,.2,1.7A1.29,1.29,0,0,0,215.21,392Z" style="fill: rgb(250, 250, 250); transform-origin: 223.598px 387.913px;" id="eltax68q2ygdr" class="animable"></path><path d="M236.3,393.54a3.38,3.38,0,0,0-1.2-2.46c-7.71-.74-15.19,4.45-16.79,6.36a1.17,1.17,0,0,0,.2,1.7,1.29,1.29,0,0,0,.74.27,1.27,1.27,0,0,0,1-.45C221.64,397.36,230.15,391.87,236.3,393.54Z" style="fill: rgb(250, 250, 250); transform-origin: 227.166px 395.209px;" id="elc3gveky0wui" class="animable"></path><path d="M248.45,404.39c-.15-.78-1.76-1.89-3.06-2.16-8.5-.18-15.35,6.61-16.65,8.82a1.17,1.17,0,0,0,.48,1.64,1.23,1.23,0,0,0,.77.15,1.29,1.29,0,0,0,.95-.61C232.1,410.27,240.31,402.63,248.45,404.39Z" style="fill: rgb(250, 250, 250); transform-origin: 238.514px 407.539px;" id="ellcfcfztfvvc" class="animable"></path><path d="M224,406.57a1.27,1.27,0,0,0,1-.56c1.17-1.78,8.29-8.65,16-7,0-.67-1.45-1.93-2.14-2.09-7.63-.33-14.69,5.76-16,7.84a1.18,1.18,0,0,0,.4,1.67A1.26,1.26,0,0,0,224,406.57Z" style="fill: rgb(250, 250, 250); transform-origin: 231.834px 401.743px;" id="elvv0t9gzp5he" class="animable"></path><path d="M386.74,315.44c-6.38,2-14.23,2.45-22.75,1.14A217.28,217.28,0,0,1,293.16,292a6,6,0,1,1,6.12-10.32c.29.17,29.66,17.36,66.53,23,14.29,2.19,23.56-2.12,24.77-6.08,1-3.22-3.47-9.27-15.56-15a6,6,0,1,1,5.11-10.86c24.36,11.46,23.45,24.32,21.93,29.32C400.15,308.41,394.55,313,386.74,315.44Z" style="fill: rgb(69, 90, 100); transform-origin: 346.422px 294.744px;" id="eljokpqrxi52" class="animable"></path><g id="freepik--brain--inject-39" class="animable" style="transform-origin: 246.587px 220.89px;"><path d="M366.53,267.11a15.91,15.91,0,0,1,2.65,13.62,11.69,11.69,0,0,1-6.14,7.58,22.94,22.94,0,0,1-8.77,2.06c-.33,6.94-5.61,13.09-12.13,15.49s-14,1.42-20.24-1.56a1.82,1.82,0,0,1-.81-.6c-.39-.61,0-1.39.36-2a15.25,15.25,0,0,0-2.24-17.42,15.92,15.92,0,0,0-.12-30.88,23.62,23.62,0,0,0,5.24-18,9.41,9.41,0,0,0-4-7.11c-.18-.14-3.2-2-3.38-1.6,0-.05,3.87-7.76-4.48-18.13s-16.32-8.77-16.32-8.77a24.75,24.75,0,0,0-6.26-13.94,17.76,17.76,0,0,0-14.65-5.52c-.77-5.27-5.59-11.6-9.93-14.56-4.54-3.09-10.94-3.87-15.5-.8a12.68,12.68,0,0,0-21.92-9.69c-.23-6.51-5.36-12.27-11.58-14.22s-13.17-.52-18.76,2.84a16.76,16.76,0,0,0-13.92-12.68c4.05-5.5,9.33-11.14,15.15-14.83,10.05-6.41,26-2.37,26-2.37a19.41,19.41,0,0,1,13.51-3.84,16.61,16.61,0,0,1,12,6.86s4.63-3.58,16.32-2.84S281.58,124,281.58,124s7.59-.78,16.46,4.56,9.49,16.81,9.49,16.81,10.27-2.83,19.87,6.59,6,18.34,6,18.34A21.65,21.65,0,0,1,350.2,181a20.54,20.54,0,0,1,1,19.9,9.8,9.8,0,0,1,6.1,5.59c2,4.59.38,7.4.38,7.4s9.07,3.78,11.85,13.21S368,242.12,368,242.12a15.63,15.63,0,0,1,8,13.25C376.56,265.05,366.53,267.11,366.53,267.11Z" style="fill: #20BE4E; transform-origin: 279.826px 208.652px;" id="elqbky9s93lwg" class="animable"></path><g id="el0vemr0s6xhgg"><path d="M366.53,267.11a15.91,15.91,0,0,1,2.65,13.62,11.69,11.69,0,0,1-6.14,7.58,22.94,22.94,0,0,1-8.77,2.06c-.33,6.94-5.61,13.09-12.13,15.49s-14,1.42-20.24-1.56a1.82,1.82,0,0,1-.81-.6c-.39-.61,0-1.39.36-2a15.25,15.25,0,0,0-2.24-17.42,15.92,15.92,0,0,0-.12-30.88,23.62,23.62,0,0,0,5.24-18,9.41,9.41,0,0,0-4-7.11c-.18-.14-3.2-2-3.38-1.6,0-.05,3.87-7.76-4.48-18.13s-16.32-8.77-16.32-8.77a24.75,24.75,0,0,0-6.26-13.94,17.76,17.76,0,0,0-14.65-5.52c-.77-5.27-5.59-11.6-9.93-14.56-4.54-3.09-10.94-3.87-15.5-.8a12.68,12.68,0,0,0-21.92-9.69c-.23-6.51-5.36-12.27-11.58-14.22s-13.17-.52-18.76,2.84a16.76,16.76,0,0,0-13.92-12.68c4.05-5.5,9.33-11.14,15.15-14.83,10.05-6.41,26-2.37,26-2.37a19.41,19.41,0,0,1,13.51-3.84,16.61,16.61,0,0,1,12,6.86s4.63-3.58,16.32-2.84S281.58,124,281.58,124s7.59-.78,16.46,4.56,9.49,16.81,9.49,16.81,10.27-2.83,19.87,6.59,6,18.34,6,18.34A21.65,21.65,0,0,1,350.2,181a20.54,20.54,0,0,1,1,19.9,9.8,9.8,0,0,1,6.1,5.59c2,4.59.38,7.4.38,7.4s9.07,3.78,11.85,13.21S368,242.12,368,242.12a15.63,15.63,0,0,1,8,13.25C376.56,265.05,366.53,267.11,366.53,267.11Z" style="fill: rgb(255, 255, 255); opacity: 0.55; transform-origin: 279.826px 208.652px;" class="animable" id="el299cbb8ittg"></path></g><g id="eletpki71mbf"><path d="M341.13,255.38c-1.78-3.75-4-7.62-7.75-9.4,3-5.76,4.08-13.17,2-19.39A21.84,21.84,0,0,0,322,213a16.33,16.33,0,0,0-10.1-17.72,74.56,74.56,0,0,0-8.66-3c-1.1-4.8-2.71-9.64-5.91-13.38s-8.32-6.17-13.11-5c.18-11.75-9.92-22.73-21.64-23.54,0,0-.08-.47-.09-.5a19.73,19.73,0,0,0-9.52-13.08,21.6,21.6,0,0,0-7.81-2.84c-2.37-.35-6-.65-8.1.78a24.93,24.93,0,0,0-12.09-9.36,28.57,28.57,0,0,0-20.32.17c-.39.15-4.38,2.17-4.36,2.19a21.9,21.9,0,0,0-8.53-5.72,70.79,70.79,0,0,0-8,9.17,16.76,16.76,0,0,1,13.92,12.68c5.59-3.36,12.54-4.8,18.76-2.84s11.35,7.71,11.58,14.22a12.68,12.68,0,0,1,21.92,9.69c4.56-3.07,11-2.29,15.5.8,4.34,3,9.16,9.29,9.93,14.56a17.76,17.76,0,0,1,14.65,5.52,24.75,24.75,0,0,1,6.26,13.94s7.92-1.62,16.32,8.77,4.5,18.08,4.48,18.13c.18-.37,3.2,1.46,3.38,1.6a9.41,9.41,0,0,1,4,7.11,23.62,23.62,0,0,1-5.24,18,15.92,15.92,0,0,1,.12,30.88,15.25,15.25,0,0,1,2.24,17.42c-.35.63-.75,1.41-.36,2a1.82,1.82,0,0,0,.81.6,29.53,29.53,0,0,0,11.6,2.89,13.67,13.67,0,0,0,.71-2.85c.09-.7-.82-8.16-1.34-7.78a31,31,0,0,0,11.51-32.71A47.75,47.75,0,0,0,341.13,255.38Z" style="fill: #20BE4E; opacity: 0.25; transform-origin: 264.637px 214.57px;" class="animable" id="eleubjm7ezluo"></path></g><g id="elrlajnpbmnkh"><path d="M368,242.12s4.28-5.62,1.52-15.05a19.15,19.15,0,0,0-2.81-5.73c1.78,4.16,2.5,10.09,1.42,13.45-2.6,8.08-4,9.38-7,11.89a9.87,9.87,0,0,1-5.9,18.05,10.14,10.14,0,0,0-9.88-8.16c.1-3.51-.15-7.17-1.87-10.23s-5.26-5.33-8.7-4.6c1.69-7.27.62-15.35-3.82-21.34a19.84,19.84,0,0,0-15.81-8c4.74,8.34,1.83,14.19,1.81,14.23.18-.37,3.2,1.46,3.38,1.6a9.41,9.41,0,0,1,4,7.11,23.62,23.62,0,0,1-5.24,18,15.92,15.92,0,0,1,.12,30.88,15.25,15.25,0,0,1,2.24,17.42c-.35.63-.75,1.41-.36,2a1.82,1.82,0,0,0,.81.6c6.28,3,13.72,4,20.24,1.56s11.8-8.55,12.13-15.49a22.94,22.94,0,0,0,8.77-2.06,11.69,11.69,0,0,0,6.14-7.58,15.91,15.91,0,0,0-2.65-13.62s10-2.06,9.53-11.74A15.63,15.63,0,0,0,368,242.12Z" style="fill: #20BE4E; opacity: 0.25; transform-origin: 345.618px 259.785px;" class="animable" id="el9esn9usthaf"></path></g><g id="elsxzos7r6p0q"><path d="M311.25,167.27c.51-3.55-3-6.66-5.61-8.56-3.34-2.43-7.56-4.66-11.68-4.54-.81,0-.16,1.52.48,1.57,2.93.23,6.16,2.12,8.57,3.82,2,1.42,5.13,3.84,5.21,6.55.11,3.79-6.3,4.41-8.93,4.37-5.1-.09-10.06-2.39-14.31-5.26a31.43,31.43,0,0,1-6-5.14c-2.05-2.34-3-5.14-4.5-7.79-.23-.41-1.05-.79-1.09-.07-.19,3.13,1.49,6.58,3.3,9.14a27.11,27.11,0,0,0,6.34,6.17,29.66,29.66,0,0,0,16.44,5.93C303.45,173.53,310.57,172.1,311.25,167.27Zm5.25,22.85a28,28,0,0,0,15.91,2.21c3.52-.54,7.72-2.12,7.86-6.28.11-3.29-2-8.42-5.93-8.29-.86,0-.1,1.39.41,1.53,2.3.62,3.24,5.51,2.35,7.43-1.36,2.89-6,3-8.76,3a26.3,26.3,0,0,1-12.93-3.29c-3.78-2.11-6.89-5.16-10.55-7.45-.61-.39-.71.53-.39.9C308,183.88,311.65,187.86,316.5,190.12Zm-32.34-48.86c2.08-3.77,3.47-9.45.06-13.18-.25-.28-.52,0-.56.25-.2,1.36.12,2.87,0,4.27a16.15,16.15,0,0,1-1.4,5.53c-1.51,3.37-4.21,6.78-7.84,7.94-8.94,2.85-17-3.09-23.62-8.9-.44-1.21-1-2.38-1.45-3.42a33,33,0,0,0-5.58-7.89,55.26,55.26,0,0,0-6.65-6.24,21.23,21.23,0,0,0-3.94-2.48c-1.09-.52-2.56-1.16-3.76-.88-.71.17-.29,1.28.28,1.42,2.41.61,4.43,2.25,6.29,3.88a65.84,65.84,0,0,1,5.64,5.69,29.25,29.25,0,0,1,5,7.29,26.18,26.18,0,0,1,1.74,5c.19.76.35,1.52.55,2.27a14.07,14.07,0,0,0,1.22,2.72c.18.35.74.75,1,.26a7,7,0,0,0,.59-3.46,26,26,0,0,0,8.13,5.95,22.38,22.38,0,0,0,15.22,1.68A15.19,15.19,0,0,0,284.16,141.26ZM335.25,203a70.07,70.07,0,0,0,7.23-1.11c1.23-.24,2.44-.53,3.65-.82.82-.19,2.2-.25,2.65-1.05a1,1,0,0,0-.67-1.37c-1.72-.48-3.78.18-5.48.45-2,.32-4.06.67-6.12.89a37.32,37.32,0,0,1-12.19-.51,30.89,30.89,0,0,1-9.53-3.8c-3.6-2.21-6.1-5-9-8-.47-.5-1.1-.28-1,.4.17,1.73,1.46,3.65,2.51,5a20.48,20.48,0,0,0,4.05,4,32.38,32.38,0,0,0,10.72,4.94A37.84,37.84,0,0,0,335.25,203Zm26.5,42.29c-3.19-6.2-10.31-10-16.84-11.06a27,27,0,0,0-3.87-.35c-.11-.09-.22-.19-.34-.27a17.08,17.08,0,0,1-3.67-3.37c-3-4.07-1.81-10.12,2.26-12.56a27.63,27.63,0,0,1,7-2.81,19.19,19.19,0,0,1,4.41-.66,19.85,19.85,0,0,1,3.81.65c.32.06.57-.28.54-.58a5.11,5.11,0,0,0-1.73-1.94,3.88,3.88,0,0,0-.56-.23,6.42,6.42,0,0,0-.86-.23,11.32,11.32,0,0,0-1.64-.21,16.24,16.24,0,0,0-3.56.24,30.26,30.26,0,0,0-7.59,2.35,13.39,13.39,0,0,0-5.23,4c-1.58,2.1-2,5.14-2,7.77a10,10,0,0,0,1.39,5.4,9.69,9.69,0,0,0,3.14,3,6,6,0,0,0-3.44,2.34,1.19,1.19,0,0,0-.21.63.87.87,0,0,0,.69.7,2.3,2.3,0,0,0,1,0c2.85-.54,5.32-1.49,8.33-1.24,5.31.44,11.44,3.38,14.7,7.89,2.58,3.57,3.52,9.5,1,13.12-2.17,3.1-6.41,3.13-9.85,2.21-1.81-.49-4.06-1.29-5.37-2.75s-.53-3,.45-4.25c.52-.67-.55-2.13-1.31-1.62-2.27,1.54-4.09,4.05-2.34,6.86,1.21,1.94,3.49,3.15,5.54,3.92,4.77,1.81,10.49,2.22,14.45-1.16C364.31,257.44,364.24,250.12,361.75,245.28Zm-4.94,30.19a17.76,17.76,0,0,0-4.72-5.76c-1.87-1.44-4.3-2.58-6.63-2.15-.78.14-.23,1.37.41,1.42,4.06.29,7,4.21,8.52,7.67a18.19,18.19,0,0,1,1.5,5.39,15.67,15.67,0,0,1,.06,2.65c0,.33-.08.64-.11,1a5.82,5.82,0,0,0-.07,1.86c.14.5.58,1.05,1.13.82.94-.38,1.56-1.88,1.8-2.79a9.73,9.73,0,0,0,.22-3.49A17.64,17.64,0,0,0,356.81,275.47Z" style="fill: #20BE4E; opacity: 0.15; transform-origin: 296.257px 202.313px;" class="animable" id="elxol586gc40s"></path></g><g id="elimd7szm8pf"><path d="M298.16,158c-3.7-1.45-9-1.29-12.85-1.37-1.13,0-2.45.15-2.95,1.13-.63,1.23.46,2.71,1.55,3.65A23.11,23.11,0,0,0,300.18,167a3.44,3.44,0,0,0,1.42-.33C305,164.74,300.58,159,298.16,158Zm32.61,25.1c1.29-2,.44-4.85-1.29-6.61s-4.09-2.68-6.38-3.54c3.93-4.52,3.41-12.08-.47-17s-10.45-7.34-16.54-7a5.82,5.82,0,0,1-3.58-.44c-2.34-1.47-1.43-4.9-1.68-7.1-.44-3.94-3.7-9.91-8.22-6.8-3.57,2.45-3.84,8.5-5.2,12.29a1.46,1.46,0,0,0-.07,1.22,1.58,1.58,0,0,0,1.07.61c2.78.64,5.62,1,8.38,1.75a32.37,32.37,0,0,1,14.1,8.08c2.56,2.5,4.79,5.62,5.17,9.11s-1.63,7.29-5,7.89c-.45,1.76,1.29,3.37,2.88,4.36a47.34,47.34,0,0,0,8,4C325,185.16,329,185.76,330.77,183.11ZM271.6,120.24a14.84,14.84,0,0,0-16.93.62,2.42,2.42,0,0,1-1.12.63A2.49,2.49,0,0,1,252,121c-2.63-1.58-8.63-6.87-11.77-5.76-4.22,1.5,5.24,9.37,6.51,11,3.4,4.28,6.32,9,10.51,12.52s10.19,5.52,14.87,3.22a10.3,10.3,0,0,0,5.44-8.09C278.12,129.29,275.65,122.85,271.6,120.24Zm-70.38-.15c-1.12.75-2.36,1.76-2.24,3.14a3,3,0,0,0,2.51,2.38,9.1,9.1,0,0,0,3.59-.32,34.63,34.63,0,0,1,7.86-.81c2.71,0,5.13.81,7.76,1.17a23.7,23.7,0,0,1,12.69,5.94,28.51,28.51,0,0,0,2.78,2.37,9.31,9.31,0,0,0,3.07,1.32,3.44,3.44,0,0,0,2.37-.15c4.1-2.18-6.29-10.54-8.08-11.84a36,36,0,0,0-14.79-6.41A24,24,0,0,0,201.22,120.09Zm154.16,146.4c-.87.16-1.86.55-2,1.42s.53,1.55,1.14,2.14l2.8,2.68a12.69,12.69,0,0,1,1.8,2c1.26,1.89,1.37,4.25,1.93,6.43.18.67.56,1.47,1.24,1.51a1.4,1.4,0,0,0,1-.46c2-1.91,2.06-5.12,1.91-8C364.85,268,361.33,265.4,355.38,266.49ZM362,222.8a19.09,19.09,0,0,0-10.17-3.26c-4.66,0-11.92,3.87-11.64,9.31.64,1.72,3,1.84,4.77,1.9a20.44,20.44,0,0,1,14.71,7.19,6.41,6.41,0,0,0,1.91,1.8,3.27,3.27,0,0,0,3.61-.66,6.25,6.25,0,0,0,1.63-3.45C367.6,231.49,365.89,225.26,362,222.8Zm-7.09,33.65a3.62,3.62,0,0,0,1.71-2.8,11,11,0,0,0-2.47-8.83,11.19,11.19,0,0,0-4.72-3.24l.26,0a18,18,0,0,0-8.78-1.22,5.3,5.3,0,0,0-3.1,1.17,2.4,2.4,0,0,0-.38,3.09,3.92,3.92,0,0,0,1.35,1,58.08,58.08,0,0,1,7.15,4.46,5.92,5.92,0,0,1,2.07,2.15c.42.9.39,2,.94,2.8.73,1.08,2.16,1.36,3.43,1.53A4.54,4.54,0,0,0,354.93,256.45Zm-4-48.42a4.2,4.2,0,0,0,1.51-.62,1.58,1.58,0,0,0,.65-1.44c-.33-1.92-4.12-1.48-5.3-1.29a84.83,84.83,0,0,1-10.68,1c-3.15.1-6.41-.3-9.5-.1a3.49,3.49,0,0,0-2.64,1.32A4.08,4.08,0,0,0,325,211c.65,1.29,1.63,2.39,2.25,3.69a16.34,16.34,0,0,0,1,2.11A2.27,2.27,0,0,0,330.2,218c1.21-.1,2.38-3.45,3.4-4.32a19.93,19.93,0,0,1,5.61-2.85C342.94,209.26,347,209,350.92,208Z" style="fill: rgb(255, 255, 255); opacity: 0.15; transform-origin: 282.988px 198.879px;" class="animable" id="el8v0108x2kv4"></path></g><path d="M328.94,303.55a14.94,14.94,0,0,0-3-7.55c10.28-2.1,15.87-13.05,15.68-22.9-.14-7.26-4.18-22.53-13.13-25.14,2-6.31,3.2-13.11,1.58-19.52s-6.62-12.3-13.15-13.33c2.19-4.66.19-10.51-3.62-14-3.17-2.88-7.16-5.73-13.78-5.39,1-10.65-7.67-20.91-20-18.58A18.35,18.35,0,0,0,259.76,156a16,16,0,0,0-23.5-14,23,23,0,0,0-35.21-9.09c-8.57-5.52-17.07-7.6-27.24-5.06-7.58,1.9-15.28,7.34-16.05,15.71-9.66-1.62-22.37,3.36-27.73,11.63a24,24,0,0,0-.86,24.14c-7.18,2.23-12,9.78-12.08,17.3s4.12,14.71,10.06,19.34c-6.76,3.23-10,11.86-8,19.1,1.72,6.41,5.83,10,11.22,13.31-6.34,2.73-6.86,9.3-7.05,11a21.37,21.37,0,0,0,3.6,14.57c3.5,5,9.79,8.27,15.14,9.11-3,10,4.44,19.76,8.38,22.25,5.1,3.22,12.71,3,19-.27,5.94,10,26,8.72,33.32-1.65.11,3.47,2.66,7.92,4.08,9.47,2.64,2.89,6.55,4.43,10.29,5.25,6,1.32,12.68,1.13,17.8-2.27.72,11.2,18.76,15.59,32.88,6.52,2.64,6.37,10.08,10.09,16.91,9.15s12.72-6,15.42-12.38a12.1,12.1,0,0,0,8.88,4.82,17.59,17.59,0,0,0,10-2.43,19.93,19.93,0,0,0,9.35-11.26A16.53,16.53,0,0,0,328.94,303.55Z" style="fill: #20BE4E; transform-origin: 229.357px 229.216px;" id="elq3u4rv5vs3j" class="animable"></path><g id="elhr9nhlwwgel"><path d="M328.94,303.55a14.94,14.94,0,0,0-3-7.55c10.28-2.1,15.87-13.05,15.68-22.9-.14-7.26-4.18-22.53-13.13-25.14,2-6.31,3.2-13.11,1.58-19.52s-6.62-12.3-13.15-13.33c2.19-4.66.19-10.51-3.62-14-3.17-2.88-7.16-5.73-13.78-5.39,1-10.65-7.67-20.91-20-18.58A18.35,18.35,0,0,0,259.76,156a16,16,0,0,0-23.5-14,23,23,0,0,0-35.21-9.09c-8.57-5.52-17.07-7.6-27.24-5.06-7.58,1.9-15.28,7.34-16.05,15.71-9.66-1.62-22.37,3.36-27.73,11.63a24,24,0,0,0-.86,24.14c-7.18,2.23-12,9.78-12.08,17.3s4.12,14.71,10.06,19.34c-6.76,3.23-10,11.86-8,19.1,1.72,6.41,5.83,10,11.22,13.31-6.34,2.73-6.86,9.3-7.05,11a21.37,21.37,0,0,0,3.6,14.57c3.5,5,9.79,8.27,15.14,9.11-3,10,4.44,19.76,8.38,22.25,5.1,3.22,12.71,3,19-.27,5.94,10,26,8.72,33.32-1.65.11,3.47,2.66,7.92,4.08,9.47,2.64,2.89,6.55,4.43,10.29,5.25,6,1.32,12.68,1.13,17.8-2.27.72,11.2,18.76,15.59,32.88,6.52,2.64,6.37,10.08,10.09,16.91,9.15s12.72-6,15.42-12.38a12.1,12.1,0,0,0,8.88,4.82,17.59,17.59,0,0,0,10-2.43,19.93,19.93,0,0,0,9.35-11.26A16.53,16.53,0,0,0,328.94,303.55Z" style="fill: rgb(255, 255, 255); opacity: 0.65; transform-origin: 229.357px 229.216px;" class="animable" id="elaijlne1r4wi"></path></g><g id="elql9ejvd64yc"><path d="M168.77,223.92a22.5,22.5,0,0,0,6.46-2.23,25.48,25.48,0,0,0,5.45-3.8,20.79,20.79,0,0,0,2.3-2.48,3.79,3.79,0,0,0,1.16-2.58c0-.42-.5-1-1-.83a6.87,6.87,0,0,0-2.1,1.77c-.75.76-1.54,1.51-2.35,2.21a24.8,24.8,0,0,1-5.45,3.61,22.28,22.28,0,0,1-5.92,1.91,24,24,0,0,1-2.94.32,9.77,9.77,0,0,0-2.77.24c-.7.27-.26,1.24.24,1.53C163.8,224.73,166.76,224.28,168.77,223.92Zm38.76-.69a52.53,52.53,0,0,0-18.76,1A63.18,63.18,0,0,0,174.5,229a33.63,33.63,0,0,0-6.61,4.13c-1.38,1.12-4.16,3.18-3.22,5.27.14.33.56.79,1,.67,2-.61,3.53-2.85,5.19-4.13a30.56,30.56,0,0,1,5.67-3.38,60.66,60.66,0,0,1,12.45-4.21,59,59,0,0,1,16.24-1.8,36.33,36.33,0,0,1,5.68.65,13.5,13.5,0,0,1,5.13,2.37c.18.12.48.14.56-.09.6-1.58-1.48-2.81-2.68-3.42A20.52,20.52,0,0,0,207.53,223.23Zm-17-57.77c2.53.45,4.38,2.58,5.88,4.56a63.13,63.13,0,0,1,4.3,6.67,48.2,48.2,0,0,1,6.38,19.58c.52,5.76-.58,11.65-5.9,14.5-6.26,3.35-14.67,1.26-20.88-1.83A18.22,18.22,0,0,1,170,196c-.14-.71-1.28-1.33-1.21-.27a18.15,18.15,0,0,0,2.7,8.87,19.52,19.52,0,0,0,6.87,6c6.4,3.64,14,5.67,21.08,3.85,16.59-4.27,10.66-26.35,4.09-37.51a49.68,49.68,0,0,0-6.15-8.55c-1.74-1.89-4.45-4.67-7.22-4.36C189.36,164.06,190,165.36,190.52,165.46Zm67.37,49.23c6.31,2.67,13.34,4,20,5.08,7.19,1.14,14.81,1.62,21.74-.35,2.46-.7,4.7-1.94,5.75-4.38a8.4,8.4,0,0,0-.43-6.75c-2.73-5.82-9.24-8.26-14.84-10.22-6.21-2.17-12.5-4.51-18.12-8.13a32,32,0,0,1-7.21-6.12c-3.28-3.89-4.77-8.38-5.68-13.27-.15-.78-2-1.58-2.1-.49-1.6,12,8.66,20.58,18.46,25.48,5.27,2.64,10.8,4.25,16.28,6.3,4.45,1.67,11.41,5,10.76,10.88-.31,2.82-2.87,3.73-5.3,4.28a39.19,39.19,0,0,1-10,.87,97.68,97.68,0,0,1-20.72-3.3,52.16,52.16,0,0,1-30.95-22.21,49,49,0,0,1-7.4-21,49.88,49.88,0,0,1,0-11.06c.42-4.31,1-9,3.28-12.72.15-.24-.11-1-.43-.66-2.22,2.2-3.08,5.34-3.69,8.38a75.23,75.23,0,0,0-1.37,9.83,47.32,47.32,0,0,0,3.7,21.87A54.93,54.93,0,0,0,257.89,214.69Zm-6.55-18a35.93,35.93,0,0,0,13.34,9.81,52.94,52.94,0,0,0,8.73,2.59c2.43.51,5.78,1.52,8.19.82.49-.14.21-1-.18-1.08-2.6-.87-5.38-1.15-8-2a58.73,58.73,0,0,1-7.85-3,37.3,37.3,0,0,1-12-9.4c-3.57-4.18-6.83-9.38-8.08-14.72-1.34-5.73,0-11.29,0-17,0-.47-.87-1.64-1.17-.79-2.15,6.05-3,13.14-1.4,19.62C244.24,187.14,247.55,192.4,251.34,196.71Zm-65.75-10.17c-.05.46.58,1.44,1.07.92,1.7-1.82,2.12-4.69,1.79-7.16a16.51,16.51,0,0,0-2.64-6.58,23,23,0,0,0-4.85-5.33,17.47,17.47,0,0,0-6.36-3.58c-1-.26-.85,1.13-.23,1.53a38.45,38.45,0,0,1,5.46,3.52,20.94,20.94,0,0,1,4.12,4.88,15.16,15.16,0,0,1,2,5.65,14.1,14.1,0,0,1,.05,3.18C185.91,184.58,185.69,185.53,185.59,186.54ZM304.33,244c-.13-.52-1.16-1.08-1.19-.25-.26,7.06,8.31,11.55,13.54,14.57a17,17,0,0,1,7.29,7.8c1.86,4.09,1.47,7.94.29,12-.14.48.45,1.27.94.92,6.57-4.75,2-15.44-3.06-19.95C316.42,254,306.5,252.49,304.33,244Zm-20,54a10.55,10.55,0,0,0,1.91-7.35c-.05-.49-.67-1.1-.86-.36a12.4,12.4,0,0,1-3.8,6.62,33.38,33.38,0,0,1-6.25,4.07,31.09,31.09,0,0,0-6.13,4.1,10.65,10.65,0,0,0-2.36,2.94,5.79,5.79,0,0,0-.47,3.83c0,.26.44,1,.82.68a29.55,29.55,0,0,0,2.92-3.83,14.59,14.59,0,0,1,2.57-2.58,48.56,48.56,0,0,1,5.85-3.6A18.89,18.89,0,0,0,284.31,298ZM156.37,185.09c.53.41,1.45.18,1.12-.62a21,21,0,0,1-2.1-8.67,38.11,38.11,0,0,1,.76-7.48,25.59,25.59,0,0,1,7.43-12.89,27.17,27.17,0,0,1,14.14-7.61,37.89,37.89,0,0,1,8.72-.25c2.84.19,5.93.75,8.74.41.79-.1.19-1.4-.32-1.55A46.55,46.55,0,0,0,179.17,145a27,27,0,0,0-13.59,4.91c-7,4.86-12.12,12.09-13,20.88C152,175.63,151.92,181.7,156.37,185.09ZM323.22,294.65a.72.72,0,0,0-.31-.29c-1.85-.95-4.33-1.05-6.3-2.07-3.43-1.79-5.87-4.33-6.57-8.18a17.43,17.43,0,0,1,0-6.44,34.61,34.61,0,0,0,1-6.25l.3.21c2,1.61,3,3.5,4.29,5.67.18.3.92.74,1.15.26,1.12-2.33-.8-4.82-2.51-6.42a32.77,32.77,0,0,0-6.09-4.25,62.85,62.85,0,0,1-7.11-4.53,31,31,0,0,1-3.25-2.81c-1.47-1.51-2.64-3.23-4-4.79-.26-.29-.56,0-.53.33.31,2.74,2.8,5.44,4.74,7.27a41.26,41.26,0,0,0,7.33,5.36c1.16.69,2.32,1.4,3.47,2.13a1,1,0,0,0-.43.7c-.3,2.13-1,4.17-1.45,6.26a19.58,19.58,0,0,0-.32,6.07,13.43,13.43,0,0,0,4,8.87c3.05,2.82,7.72,5.23,12,3.84a.92.92,0,0,0,.68-.53A.54.54,0,0,0,323.22,294.65Zm-8.47,15.22a28.84,28.84,0,0,0-3.53-5.49,16.26,16.26,0,0,0-5.26-4.09,21.37,21.37,0,0,0-3.11-1.27l-.63-.19a10,10,0,0,0,.5-2.95,29.75,29.75,0,0,0-1.62-9.21c-1-2.95-2.45-6-5.45-7.35-1.2-.54-1.18,1.16-.33,1.67,1.3.79,2.07,3.23,2.57,4.56a29.44,29.44,0,0,1,1.42,5.26c.45,2.62.83,5.45-.23,7.83a.37.37,0,0,0-.18.36,6.13,6.13,0,0,1-.46.78c-2.18,3-6,4.38-9.24,6s-6.78,3.62-7.07,7.55c-.05.63.95,1.51,1.42.87a21.14,21.14,0,0,1,7.94-6.43c2.82-1.4,5.84-2.66,8.14-4.85a10.7,10.7,0,0,0,1.61-2l.23.06c.42.11.83.23,1.24.37a18,18,0,0,1,2.41,1,12.9,12.9,0,0,1,4,3,31.79,31.79,0,0,1,2.44,3.23,23.25,23.25,0,0,1,1.44,2.46,21.5,21.5,0,0,1,1.1,2.32,5.77,5.77,0,0,0,.59,1.35c.11.16.37.42.59.31.79-.39.58-1.62.46-2.37A9.91,9.91,0,0,0,314.75,309.87ZM209.59,283c-4.22-3-9.22-3.67-14-4.76s-9.66-2-14.4-3.46a64.55,64.55,0,0,1-7-2.49c-3.27-1.39-6.17-3.5-9.39-4.92a.67.67,0,0,0-.92.92c1.05,2,3.55,3.52,5.45,4.65a39.75,39.75,0,0,0,6,2.86c1.74.68,3.52,1.25,5.3,1.78-.27,1-.44,2-.71,2.94a29.69,29.69,0,0,1-1.1,3.13,25,25,0,0,1-3.23,5.7,24.4,24.4,0,0,1-2.43,2.74,56.86,56.86,0,0,0-30-27.09,52.65,52.65,0,0,0-11.21-3.19c-.66-.1-.87,1.45-.21,1.58a54.49,54.49,0,0,1,10.19,3,59.85,59.85,0,0,1,23.76,18.81,53.92,53.92,0,0,1,5.34,8.77,26.25,26.25,0,0,1-5.7,3.41c-.78.34-.14,2.07.67,1.79a23.9,23.9,0,0,0,7.28-4.11,1.33,1.33,0,0,0,.45-.36,24.81,24.81,0,0,0,3.71-3.95,26.63,26.63,0,0,0,3.42-6,15.82,15.82,0,0,0,1.43-6.66c2.09.57,4.2,1.08,6.31,1.56,5.41,1.23,11.25,1.83,16.5,3.73a18.92,18.92,0,0,1,4.56,2.44c1.68,1.2,4.17,3.08,4.46,5.26.09.7,1.32,1.35,1.39.36C215.75,287.77,212.39,284.92,209.59,283ZM158,237.51a36.9,36.9,0,0,0,4.35,6.13,52,52,0,0,0,16.39,12.61l1.11.54c15.21,7.11,34.13,7.22,46.78,19.75a24.43,24.43,0,0,1,7,11.66,18.6,18.6,0,0,1,.4,7.34c-.39,2.28-1.74,3.94-2.37,6.07-.16.56.68,1.56,1.28,1.26,3.41-1.7,4.39-6.47,4.46-10.08a23.29,23.29,0,0,0-3.1-11.77c-4-7.13-11.2-12-18.47-15.35-1.21-.54-2.43-1-3.66-1.52a19.35,19.35,0,0,0,3.4-4.35,35.25,35.25,0,0,0,4.19-10.25A12.92,12.92,0,0,0,217.86,239a12,12,0,0,0-4.21-3.69c-1.67-.87-4.46-1.82-6.2-1-.71.33.16,1.4.63,1.51,1.87.45,3.48.45,5.16,1.62a8.93,8.93,0,0,1,3.15,4.05,12.79,12.79,0,0,1,.08,8.33,34.34,34.34,0,0,1-3.62,8.39,17.21,17.21,0,0,1-2.61,3.45,7.71,7.71,0,0,1-1.65,1.14c-6.2-2.13-12.58-3.7-18.84-5.64-9.09-2.82-17.48-7.26-24.17-14.34a41.31,41.31,0,0,1-4.47-5.57,26.86,26.86,0,0,1-2.65-5.8A28.21,28.21,0,0,1,157,217c.27-1.65.65-3.45-.18-4.9a1.06,1.06,0,0,0-.86-.61c-.38,0-.64.4-.82.74-1.53,2.94-1.69,6.37-2.25,9.64-.31,1.84-2.33,1.28-3.73.88a21.18,21.18,0,0,1-11.57-8.45,11.65,11.65,0,0,0-1.68-2.2,1,1,0,0,0-.69-.31.93.93,0,0,0-.67.62,3.86,3.86,0,0,0,.17,3.12,10.2,10.2,0,0,0,1.89,2.59A35.74,35.74,0,0,0,148.43,227c.86.37,1.75.69,2.57,1.14,2.89,1.58,4.63,4.51,6,7.4C157.29,236.19,157.64,236.86,158,237.51Zm128.07,32.77a36.68,36.68,0,0,0-.13-12.45,41.54,41.54,0,0,0-3.55-12.16,34.66,34.66,0,0,0-3.46-5.43,12,12,0,0,1,.78-2.35,14.18,14.18,0,0,1,3-3.73c2.86-2.51,6.83-2.27,10.49-1.79,4.21.56,8.39,1.13,12.48,0a23.69,23.69,0,0,0,5.75-2.42,14.12,14.12,0,0,0,4.49-3.45c.4-.55-.37-1.57-1-1.42-2.26.52-4,1.89-6,2.91a19.3,19.3,0,0,1-7.06,2c-4.41.35-8.79-1.1-13.21-1.06a12.91,12.91,0,0,0-10,4.59,16.22,16.22,0,0,0-2.36,3.54c-.94-1-1.92-2-2.94-2.88a39.23,39.23,0,0,0-13-7.74c-5.33-1.86-10.85-2.62-16.37-3.34-5-.65-9.81-1.28-14.44-3.56-3.83-1.88-8.34-4.53-9.7-8.91-.23-.74-1.41-1-1.28,0,.5,3.77,3.46,6.62,6.39,8.83a29.56,29.56,0,0,0,10.79,5.08c10.11,2.36,20.8,2.05,30,7.89a35.32,35.32,0,0,1,15.93,21.87c1.73,7.57,2.8,17-2.86,22.88a59.42,59.42,0,0,1-13.55,10c-1.16.66-2.43,1.41-3.65,2.24a32.77,32.77,0,0,0,1-6.93,37,37,0,0,0-1.94-14.31,34.89,34.89,0,0,0-7.37-11.79c-3.82-4.05-8.46-6.72-12.94-9.89a33,33,0,0,1-7.11-6.6c-2.3-2.93-4.25-6.17-6.31-9.27-.41-.61-.8.19-.58.64,2.43,4.85,4.79,9.74,8.65,13.71s8.67,6.52,12.76,10.07A34.08,34.08,0,0,1,259.58,279a30.27,30.27,0,0,1-.56,8.61c-.65,2.94-2.34,5.54-3.37,8.37a47.12,47.12,0,0,0-2.38,9.58c-.11.73-.09,1.67.58,2a1.21,1.21,0,0,0,1.3-.31c1.38-1.3,1.65-3.93,2.19-5.63a22.22,22.22,0,0,1,3.16-6.4c1.9-2.59,4.43-4.11,7.21-5.65a62.11,62.11,0,0,0,12.43-8.91A18.28,18.28,0,0,0,286.07,270.28Z" style="fill: #20BE4E; opacity: 0.15; transform-origin: 229.9px 229.95px;" class="animable" id="elz28qrktuepg"></path></g><g id="elxpuqk519o3"><path d="M145.32,182.08a4.08,4.08,0,0,0,2-.38c1.89-1,1.6-3.82,1.29-6a30.87,30.87,0,0,1,3.34-18.87c.87-1.6,1.92-3.4,1.3-5.19a4.37,4.37,0,0,0-3.57-2.6c-4.1-.6-7.37,1.93-9.65,4.95A25.76,25.76,0,0,0,135,170.28C135.18,176.74,138.18,182.05,145.32,182.08Zm30.55,2.08a15.83,15.83,0,0,0,2,2.37c.82.64,2.12.84,2.75.08a2.44,2.44,0,0,0,.41-1c3-12.78-21.37-27-21.42-10.47a12,12,0,0,0,1.36,6.36C164.91,187.94,170.51,177.93,175.87,184.16Zm-16.12,26.09c1.06-.47,1.37-1.83,1.37-3a12.16,12.16,0,0,0-1.83-6.28c-3.41-5.45-9.26-7.76-15.16-7.71a10.57,10.57,0,0,0-4.2.69,4.3,4.3,0,0,0-2.64,3.1c-.34,2.07,1.27,4.13,3.17,5.14s4.06,1.29,6.12,1.84a24.19,24.19,0,0,1,9.17,4.7C156.93,209.67,158.41,210.83,159.75,210.25Zm17,29.3a3.92,3.92,0,0,0-2.5.87,3,3,0,0,0-.33,3.3,8.09,8.09,0,0,0,2.35,2.73c5.64,4.67,12.56,7.42,19.5,9.45,4.38,1.29,9.45,2.23,13-.34,2.71-1.93,3.87-5.5,3.79-8.92a11.27,11.27,0,0,0-2.9-7.68c-2-2-5.24-2.89-7.58-1.55a32.5,32.5,0,0,0-3.12,2.64c-3.13,2.35-7.6,2.72-11.47,2.32-3.15-.32-6.2-2.32-9.2-2.76A7.6,7.6,0,0,0,176.75,239.55Zm8.49-32c3.74,1.48,8,2.06,11.7.49a10.55,10.55,0,0,0,3.5-2.52c3.72-4,3.95-9.39,3.19-14.69-.75-5.14-3.1-10.36-7.24-13.77-1.23-1-3.06-1.84-4.26-.91a3.45,3.45,0,0,0-1,2.46c-.44,4,.32,8.13-.07,12.15-.05.49-.12,1-.22,1.48a7.43,7.43,0,0,1-1.24,3,7.54,7.54,0,0,1-5.13,2.72c-1.54.22-3.34.12-4.12,1.66a4.45,4.45,0,0,0,.31,4.05A10.24,10.24,0,0,0,185.24,207.52ZM165.7,143.75c5.61.24,11.09-2.33,16.92-2.22a35,35,0,0,1,17.55,4.62c3.45,2.08,6.53,4.92,10.3,6.3,8.54,3.13,15.63-6.42,10.08-14a12.57,12.57,0,0,0-10.74-4.72,19,19,0,0,0-10.72,4.57,26.78,26.78,0,0,0-20.68-5.62c-5.35.8-10.81,3.25-13.86,7.82-.57.86-1,2.2-.12,2.87A2.18,2.18,0,0,0,165.7,143.75Zm42.51,124.86c-8.58-3.53-17.71-5.38-26.3-8.9a76.14,76.14,0,0,1-23.34-15.11c-3.17-3-6.5-3.53-5.92,1.66,1.55,13.77,19.66,18.95,30.5,22.49l20.52,6.68A54,54,0,0,1,215,280.09a18.56,18.56,0,0,1,8.08,9c.7,1.85,1.26,4.17,3.13,4.82,1.69.58,3.47-.8,3.89-2.49a8,8,0,0,0-.92-5.16C225.2,277.81,216.8,272.14,208.21,268.61Zm108.28,2c1.56,2.13,2.7,8.95,6.41,5.12,2.65-2.73.87-9-1.15-11.72-2.48-3.29-6.2-5.35-9.79-7.34-1.94-1.07-5.24-3.74-7.55-2.31a3.64,3.64,0,0,0-1.59,3.27,5.09,5.09,0,0,0,1.66,3.34c2.3,2.19,5.25,3.39,7.69,5.4A27.07,27.07,0,0,1,316.49,270.64Zm-17.11-59c-.49-2.66-3.83-4.93-6.41-5.73-12.79-3.94-18.27-7.4-26.93-11.65-1.66-.81-3.89-1.54-5.06-.2s-.26,3.34,1,4.47a32,32,0,0,0,7,4.54,92.48,92.48,0,0,0,13.65,5.06c3.36,1-.91,4.12-3.91,3.68a62.56,62.56,0,0,1-24.19-9c-5.91-3.79-10.15-9.81-12.8-16.35-1-2.41-1.47-5.86-2-8.35-.33-1.47-1.29-3.94-2.65-5-4.26-3.24-3.18,9.51-2.83,11.13,1.23,5.58,3.72,11.26,7.69,15.43,6.27,6.61,10.9,10.1,19.34,13.27,8,3,22.58,6.6,33.87,4.31C297.82,216.71,299.89,214.42,299.38,211.64Zm-23.52,12c-4.52-2.17-9.5-3-14.31-4.24a60.76,60.76,0,0,1-22.57-11A43.28,43.28,0,0,1,224.54,188c-1.6-5.11-2-10.4-3-15.61-.52-2.75-.49-5.84-1.73-8.43a4.71,4.71,0,0,0-3-2.8c-1-.17-2,.46-2.43,2.28-1.07,4.12.61,11,1.19,15.14a117.46,117.46,0,0,0,3.93,17.9c1.44,4.76,3.27,9.58,6.61,13.32,3.14,3.52,7.4,5.84,11.75,7.55,11.85,4.65,24.94,5.32,36.31,11.15,1.39.72,3.19,1.48,4.32.5a2.53,2.53,0,0,0,.13-3.2A6.6,6.6,0,0,0,275.86,223.68ZM250,233.07c-2.79-.42-12.58-.31-8.85,4.89a11.66,11.66,0,0,0,3,2.61c10.29,7.15,19.25,17.66,20.88,29.9.36,2.63.78,5.9,3.26,6.9a5,5,0,0,0,4.32-.65c3.49-2,4.91-7.09,5.3-10.94C279.56,249.12,265.78,235.44,250,233.07Zm-11.07,25.21c-3.16-2.19-9.39-5.7-12.92-3.14-3.38,2.45-2.24,7.6.11,10.62s5.81,5.1,8.4,8a25.25,25.25,0,0,1,5.82,13.14c.67,4.22-.57,7.83-.23,11.83a4.68,4.68,0,0,0,1.94,3.59,4.56,4.56,0,0,0,2.55.64c3-.06,5.57-2.19,6.94-4.81a18.44,18.44,0,0,0,1.84-6.86,42.92,42.92,0,0,0-1.71-15A32.88,32.88,0,0,0,238.88,258.28Z" style="fill: rgb(255, 255, 255); opacity: 0.2; transform-origin: 229.608px 217.679px;" class="animable" id="elk2ltp9mm1rm"></path></g><g id="el255o21diyyw"><path d="M283.54,325.92c-5.58-2-10.35-6.77-11.46-12.6-5.83,4.44-13.56,6.84-20.64,5s-13-8.66-12.5-16c-7.62,4.45-17.73,4.43-23.88-2.55a18.46,18.46,0,0,1-4.13-13.39c-8,1.48-16.89,2-23.34-3.85a20,20,0,0,1-5.06-21.47A17.58,17.58,0,0,1,160,238.29,16.93,16.93,0,0,1,150.85,210a18.84,18.84,0,0,1-10.76-13.41,15.33,15.33,0,0,1-.21-3.58,15.57,15.57,0,0,1,6.59-12.06c-10.83-6-12.93-18.17-9.71-29.17a33.34,33.34,0,0,1,1.46-4.06,24.43,24.43,0,0,0-8.19,7.5,24,24,0,0,0-.86,24.14c-7.18,2.23-12,9.78-12.08,17.3s4.12,14.71,10.06,19.34c-6.76,3.23-10,11.86-8,19.1,1.72,6.41,5.83,10,11.22,13.31-6.34,2.73-6.86,9.3-7.05,11a21.37,21.37,0,0,0,3.6,14.57c3.5,5,9.79,8.27,15.14,9.11-3,10,4.44,19.76,8.38,22.25,5.1,3.22,12.71,3,19-.27,5.94,10,26,8.72,33.32-1.65.11,3.47,2.66,7.92,4.08,9.47,2.64,2.89,6.55,4.43,10.29,5.25,6,1.32,12.68,1.13,17.8-2.27.72,11.2,18.76,15.59,32.88,6.52,2.64,6.37,10.08,10.09,16.91,9.15a18.87,18.87,0,0,0,9.43-4.32A24.55,24.55,0,0,1,283.54,325.92Z" style="fill: #20BE4E; opacity: 0.25; transform-origin: 205.619px 239.702px;" class="animable" id="elh6ngievkse"></path></g></g><g id="elaidmtinbgod"><circle cx="271.1" cy="216.99" r="15.29" style="fill: rgb(69, 90, 100); transform-origin: 271.1px 216.99px; transform: rotate(-23.1deg);" class="animable" id="eltgo71kcba2a"></circle></g><path d="M272.34,213.12a4.35,4.35,0,1,1-3.78-4.85A4.34,4.34,0,0,1,272.34,213.12Z" style="fill: rgb(245, 245, 245); transform-origin: 268.023px 212.587px;" id="el77pyqg7tl7g" class="animable"></path><path d="M262.93,166.34c-8.9-2.53-19.13,4.75-24.5,11.13-3.29,3.91-7,10.19-3.36,15,1.12,1.46,2.84,2.49,4.53,1.3,4.59-3.23,7.41-8.25,11.76-11.89,4.11-3.45,8.74-5.07,13.25-7.71C268,172.13,266.16,167.25,262.93,166.34Z" style="fill: rgb(69, 90, 100); transform-origin: 249.994px 180.057px;" id="elihjpn8kh2ls" class="animable"></path><g id="ela7r6r371hbv"><circle cx="349.06" cy="203.13" r="14.47" style="fill: rgb(69, 90, 100); transform-origin: 349.06px 203.13px; transform: rotate(-47.95deg);" class="animable" id="elrc8qkteovy"></circle></g><path d="M347.91,197.17a4.06,4.06,0,1,1-5.17-2.51A4.05,4.05,0,0,1,347.91,197.17Z" style="fill: rgb(245, 245, 245); transform-origin: 344.072px 198.494px;" id="eliu7eonh7rpf" class="animable"></path><path d="M365.62,177.34c-2.63-8.27-13.62-12.51-21.39-13.41-4.77-.55-11.6-.21-13.45,5.12-.56,1.63-.48,3.5,1.33,4.21,4.9,1.92,10.29,1.53,15.39,3.05,4.82,1.43,8.49,4.21,12.89,6.38C363.72,184.33,366.57,180.34,365.62,177.34Z" style="fill: rgb(69, 90, 100); transform-origin: 348.139px 173.406px;" id="elm29nwvpqbhn" class="animable"></path><path d="M301.25,269.36a6.39,6.39,0,0,0,1.44,1.15,7.37,7.37,0,0,0,6.72.15,12.14,12.14,0,0,0,5-4.7c2.66-4.25,4.22-9.83.9-14.22-3.83-5.07-10.85-.41-13.47,3.63C299.48,259.06,297.91,265.78,301.25,269.36Z" style="fill: #20BE4E; transform-origin: 308.264px 260.46px;" id="el66kdyyst2z5" class="animable"></path><g id="eljptdejxj4g"><path d="M312.92,268a22.94,22.94,0,0,0-12.45-9.83c-1.44,3.69-1.83,8.39.78,11.19a6.62,6.62,0,0,0,1.44,1.15,7.37,7.37,0,0,0,6.72.15A10.75,10.75,0,0,0,312.92,268Z" style="opacity: 0.3; transform-origin: 306.129px 264.784px;" class="animable" id="elylh3bpubd5"></path></g><path d="M377.38,284.73l4.05-11.26c-8.66-4.05,0-17.77-5.52-28.17s-10.44-5.75-8.21-2.27c2.41,3.78,3,7.14,2.39,10.14s-2.37,4.69-4.46,3.13-3.69-7-11.3-12.7c-6.91-5.14-13.18-5.81-15.89-5.64-5.63.35-3.4,4.15-.61,5.06,11.94,3.91,13.56,6.41,16.73,10s2.93,5.84,1.38,5.49-4.06-3.5-11.39-6.32-15.18-2.26-16.32-.7-.87,3.49,2.56,4.08,10.7,1.91,14.72,3.9c5.15,2.54,7.65,6.09,6.9,7.22s-5.18-1.6-11.71-2.37-9.85-.55-12.45.66c-1.94.9-1,4.84,5,4.74,4.79-.09,12.76,1.72,17.3,4.41a58.07,58.07,0,0,0,10.21,5.09C365.44,280.93,369,281.17,377.38,284.73Z" style="fill: rgb(69, 90, 100); transform-origin: 354.385px 261.334px;" id="el1wfsddm3j7ki" class="animable"></path><path d="M154.74,346.24a5.28,5.28,0,0,1-7.34-4.43c-3.54-44.06,8.5-68.46,29.06-93.54a5.28,5.28,0,0,1,8.17,6.69c-19.39,23.65-30,45.3-26.7,86A5.29,5.29,0,0,1,154.74,346.24Z" style="fill: rgb(69, 90, 100); transform-origin: 166.291px 296.518px;" id="elx43xf8g7x8j" class="animable"></path><path d="M147.1,337.84c.22,6.14-2,9.61-3.6,14s-4,7.64-5,13.83,1.05,15.05,3.62,18.51c1.46,1.95,4.48.69,3.84-1.3-2.37-7.37-3.8-14-.44-19.92,0,0-.45,8.29,1.77,14.72s6.22,13.53,9,12.8,1.51-3.33-.45-6.93-6.54-13.38-4.57-22.6c0,0,2.69,11.22,7.32,17.14s10.13,9.22,11.7,7.58.93-2.87-3.34-7.12c-3.31-3.3-5.39-8.38-6.81-12.84s-1.75-8-.12-12.32a9.42,9.42,0,0,1,2.69-3.95,5.91,5.91,0,0,1,5-.45,13.44,13.44,0,0,1,7.14,6c1.89,3.16,7.57,1.1,1.47-7.46s-18.44-5.25-18.82-14.21Z" style="fill: rgb(69, 90, 100); transform-origin: 158.656px 361.926px;" id="eljbgc1uzx6rg" class="animable"></path></g></g><g id="freepik--Symbols--inject-39" class="animable" style="transform-origin: 253.541px 242.585px;"><g id="freepik--question-marks--inject-39" class="animable" style="transform-origin: 253.541px 242.585px;"><g id="freepik--question-mark--inject-39" class="animable" style="transform-origin: 407.276px 201.238px;"><path d="M420.18,171a7.91,7.91,0,0,1,5.26,2.05,7.27,7.27,0,0,1,1.71,2.3,7.41,7.41,0,0,1,.66,2.77,7.74,7.74,0,0,1-.48,3h0a7.47,7.47,0,0,1-1.55,2.55,7.12,7.12,0,0,1-2.3,1.71A7.65,7.65,0,0,1,415.1,184a7.9,7.9,0,0,1-1.69-2.31,7.56,7.56,0,0,1-.24-5.77,7.51,7.51,0,0,1,3.92-4.24,7.7,7.7,0,0,1,2.78-.65Zm-8.25,16.28,8.33,3.06-2,7.78a6.64,6.64,0,0,1-2.07,3.65,12.12,12.12,0,0,1-3.41,2.06,32.45,32.45,0,0,1-4,1.31,30.63,30.63,0,0,0-4,1.34,13.37,13.37,0,0,0-3.41,2.06,7.81,7.81,0,0,0-2.27,3.4,6.13,6.13,0,0,0-.39,2.61,5.91,5.91,0,0,0,.73,2.36,6.88,6.88,0,0,0,1.76,2,9.67,9.67,0,0,0,2.69,1.48,13.69,13.69,0,0,0,4,.92,15.1,15.1,0,0,0,3.11-.13c.92-.15,1.7-.3,2.35-.45a3.53,3.53,0,0,1,2.05,0,3.2,3.2,0,0,1,2.2,2.66l1.27,5.91-.58.22a31,31,0,0,1-4.12,1.28,24.81,24.81,0,0,1-4.56.65,25.22,25.22,0,0,1-4.93-.26,27.29,27.29,0,0,1-5.35-1.39,22.9,22.9,0,0,1-6.52-3.59,16.78,16.78,0,0,1-4.29-5,14.41,14.41,0,0,1-1.76-6.07,16.24,16.24,0,0,1,1.05-6.68,16.9,16.9,0,0,1,3.1-5.45,17.38,17.38,0,0,1,4-3.35,19.35,19.35,0,0,1,4.32-1.95l4-1.23a24.64,24.64,0,0,0,3.26-1.22,3.85,3.85,0,0,0,1.85-1.65Z" style="fill: rgb(224, 224, 224); transform-origin: 407.276px 201.238px;" id="el10xfuxm52wgq" class="animable"></path></g><g id="freepik--question-mark--inject-39" class="animable" style="transform-origin: 58.0608px 250.674px;"><path d="M68.48,278.45a17.1,17.1,0,0,1-6.05,1.18A15.14,15.14,0,0,1,56,278.24,16.87,16.87,0,0,1,50.48,274a17.47,17.47,0,0,1-3.43-5.52A18.56,18.56,0,0,1,46,263.17a20.34,20.34,0,0,1,.37-4.9L47.2,254a28.08,28.08,0,0,0,.5-3.6,4,4,0,0,0-.6-2.55l-4-6.34,6.84-6L56,241.1a6.93,6.93,0,0,1,2.28,3.67,12.54,12.54,0,0,1,.2,4.12,35,35,0,0,1-.8,4.33,29.91,29.91,0,0,0-.77,4.32,14.18,14.18,0,0,0,.2,4.17,8.2,8.2,0,0,0,2,3.8,6.2,6.2,0,0,0,2.23,1.66,6,6,0,0,0,2.54.51,7.14,7.14,0,0,0,2.74-.62,10.2,10.2,0,0,0,2.7-1.73,14.69,14.69,0,0,0,2.87-3.26,15.8,15.8,0,0,0,1.42-2.93c.32-.91.57-1.71.76-2.37a3.62,3.62,0,0,1,1-1.83,3.27,3.27,0,0,1,3.45-.68l6,1.76-.07.58a33.57,33.57,0,0,1-.88,4.4,26.35,26.35,0,0,1-1.66,4.47,26.77,26.77,0,0,1-2.68,4.37A27.18,27.18,0,0,1,75.6,274a23.84,23.84,0,0,1-6.49,4.18ZM44.87,241.76l3.39,5.34a5.49,5.49,0,0,1,.81,3.37,27.47,27.47,0,0,1-.53,3.79l-.86,4.29a18.51,18.51,0,0,0-.34,4.56,16.8,16.8,0,0,0,1,4.89,16,16,0,0,0,3.16,5.07A15.53,15.53,0,0,0,56.62,277a13.64,13.64,0,0,0,5.8,1.27,16.17,16.17,0,0,0,6.16-1.33A22.68,22.68,0,0,0,74.7,273a26.33,26.33,0,0,0,3.72-4,24.27,24.27,0,0,0,4.12-8.38,33.5,33.5,0,0,0,.75-3.63l-4.89-1.44a1.89,1.89,0,0,0-2.11.41,2.32,2.32,0,0,0-.6,1.15c-.19.69-.45,1.52-.78,2.46a17.72,17.72,0,0,1-1.55,3.19,16,16,0,0,1-3.13,3.58,11.67,11.67,0,0,1-3.07,2,8.63,8.63,0,0,1-3.25.73,7.41,7.41,0,0,1-5.83-2.65A9.46,9.46,0,0,1,55.77,262a15.19,15.19,0,0,1-.21-4.57,31.39,31.39,0,0,1,.79-4.53,31.87,31.87,0,0,0,.77-4.15,11.13,11.13,0,0,0-.17-3.66,5.6,5.6,0,0,0-1.86-2.95l-5.19-4.78Zm-3-5-.37.13a8.09,8.09,0,0,1-2.91.39,7.55,7.55,0,0,1-2.89-.75,7.35,7.35,0,0,1-2.46-1.87,7.59,7.59,0,0,1-1.56-2.7,7.77,7.77,0,0,1-.36-2.93,8.07,8.07,0,0,1,5.37-6.88,7.47,7.47,0,0,1,2.93-.42,7.57,7.57,0,0,1,2.83.77,7.91,7.91,0,0,1,2.46,1.89h0A8.07,8.07,0,0,1,46.47,227a7.46,7.46,0,0,1,.41,2.93,7.71,7.71,0,0,1-.76,2.86,7.83,7.83,0,0,1-1.9,2.49A7.6,7.6,0,0,1,41.88,236.75ZM37,223.51a6.85,6.85,0,0,0-2,1.24,6.43,6.43,0,0,0-1.57,2,6.56,6.56,0,0,0-.65,2.34,6.25,6.25,0,0,0,.3,2.41,6.39,6.39,0,0,0,1.28,2.22,6.15,6.15,0,0,0,2,1.53,6.36,6.36,0,0,0,2.37.62,6.83,6.83,0,0,0,2.43-.33,6.12,6.12,0,0,0,2.21-1.28,6.44,6.44,0,0,0,2.2-4.41,6.06,6.06,0,0,0-.34-2.39,6.64,6.64,0,0,0-1.29-2.2,6.57,6.57,0,0,0-2-1.57,6.26,6.26,0,0,0-2.32-.62,6.06,6.06,0,0,0-2.39.34Z" style="fill: rgb(224, 224, 224); transform-origin: 58.0608px 250.674px;" id="ellk0exphopy" class="animable"></path></g><g id="freepik--question-mark--inject-39" class="animable" style="transform-origin: 446.976px 291.077px;"><path d="M423,331.92a9.91,9.91,0,0,1-4.82-8.21,10.38,10.38,0,0,1,.67-4.11h0a10.72,10.72,0,0,1,2.14-3.54,10.1,10.1,0,0,1,3.2-2.36,10.43,10.43,0,0,1,3.86-.93,10.56,10.56,0,0,1,4.17.65,10.26,10.26,0,0,1,3.57,2.2,11.13,11.13,0,0,1,2.33,3.21,10.08,10.08,0,0,1,1,3.88,10.32,10.32,0,0,1-.63,4.11,10.12,10.12,0,0,1-2.2,3.57,10.5,10.5,0,0,1-3.23,2.3,10.55,10.55,0,0,1-8,.22A11.67,11.67,0,0,1,423,331.92Zm-2.62-11.76a8.92,8.92,0,0,0-.57,3.48,8.26,8.26,0,0,0,2.74,5.9,9.16,9.16,0,0,0,3.06,1.84,9.05,9.05,0,0,0,3.48.57,8.94,8.94,0,0,0,3.26-.76,8.59,8.59,0,0,0,4.57-4.94,8.69,8.69,0,0,0,.53-3.45,8.6,8.6,0,0,0-.8-3.27,9.52,9.52,0,0,0-2-2.73,8.49,8.49,0,0,0-3-1.84,8.84,8.84,0,0,0-3.52-.56,9.18,9.18,0,0,0-3.27.78,8.56,8.56,0,0,0-2.67,2,9.18,9.18,0,0,0-1.82,3Zm8.52-13.84,2.75-10.81a9.26,9.26,0,0,1,2.88-5,17,17,0,0,1,4.76-2.88,45.61,45.61,0,0,1,5.68-1.84,41.56,41.56,0,0,0,5.68-1.89,19.57,19.57,0,0,0,4.88-2.94,11.33,11.33,0,0,0,3.28-4.9,8.67,8.67,0,0,0,.56-3.78,8.48,8.48,0,0,0-1.05-3.42,10,10,0,0,0-2.54-2.91,14,14,0,0,0-3.85-2.12,19.69,19.69,0,0,0-5.79-1.32,21.25,21.25,0,0,0-4.44.19c-1.29.2-2.41.42-3.34.63a4.77,4.77,0,0,1-2.77,0,4.32,4.32,0,0,1-3-3.58l-1.75-8.2.65-.25a45.78,45.78,0,0,1,5.8-1.8,34.81,34.81,0,0,1,13.34-.53,38.15,38.15,0,0,1,7.51,2,32.45,32.45,0,0,1,9.16,5,23.6,23.6,0,0,1,6,7,20.44,20.44,0,0,1,2.45,8.48,23,23,0,0,1-1.48,9.36,23.6,23.6,0,0,1-4.36,7.63,24.48,24.48,0,0,1-5.59,4.7,27.06,27.06,0,0,1-6.07,2.72l-5.68,1.74A35.32,35.32,0,0,0,448,299.3a5.73,5.73,0,0,0-2.71,2.41l-4.92,8.82Zm26.57-42.62a15.77,15.77,0,0,1,1.33.93,11.56,11.56,0,0,1,2.94,3.39,10.08,10.08,0,0,1,1.26,4.07,10.29,10.29,0,0,1-.66,4.5,12.9,12.9,0,0,1-3.76,5.59,21.24,21.24,0,0,1-5.3,3.19,43.12,43.12,0,0,1-5.91,2,42.3,42.3,0,0,0-5.47,1.77,15.25,15.25,0,0,0-4.3,2.59,7.69,7.69,0,0,0-2.36,4.19l-2.39,9.4,8.74,3.22,4.23-7.59a7.42,7.42,0,0,1,3.46-3.11,39,39,0,0,1,4.86-1.81l5.68-1.73a26.22,26.22,0,0,0,5.7-2.56,23.13,23.13,0,0,0,5.21-4.39,22,22,0,0,0,4-7.1,21,21,0,0,0,1.38-8.69,18.71,18.71,0,0,0-2.25-7.81,22.09,22.09,0,0,0-5.59-6.53,30.83,30.83,0,0,0-8.7-4.78,35.82,35.82,0,0,0-7.19-1.89,32.91,32.91,0,0,0-12.71.5,46.26,46.26,0,0,0-4.95,1.49l1.47,6.88a2.68,2.68,0,0,0,1.93,2.34,3.34,3.34,0,0,0,1.83,0c1-.22,2.12-.44,3.44-.66a24,24,0,0,1,4.79-.21,21.55,21.55,0,0,1,6.27,1.43A16.43,16.43,0,0,1,455.47,263.7Z" style="fill: #20BE4E; transform-origin: 446.976px 291.077px;" id="el46njbfy35td" class="animable"></path></g><g id="freepik--question-mark--inject-39" class="animable" style="transform-origin: 76.1714px 181.328px;"><path d="M55.17,150.14a35.11,35.11,0,0,1,3.92-3.37A36.24,36.24,0,0,1,65.56,143a31.14,31.14,0,0,1,9.7-2.82,22.75,22.75,0,0,1,8.9.68A19.7,19.7,0,0,1,91.63,145,22.12,22.12,0,0,1,97,152.35a23.06,23.06,0,0,1,2.24,8.18,24.22,24.22,0,0,1-.6,7,26.87,26.87,0,0,1-2.28,6l-2.69,5.07a33.8,33.8,0,0,0-2,4.36,5.47,5.47,0,0,0-.2,3.51l2.67,9.37L83.5,200.81,78,191.56a9,9,0,0,1-1.48-5.4A16.24,16.24,0,0,1,77.79,181a43.81,43.81,0,0,1,2.62-5.14A40.3,40.3,0,0,0,83,170.63a18.65,18.65,0,0,0,1.32-5.35,10.86,10.86,0,0,0-1.11-5.59,8.47,8.47,0,0,0-2.21-3,8.26,8.26,0,0,0-3.06-1.61,9.7,9.7,0,0,0-3.72-.25,13.59,13.59,0,0,0-4.08,1.19,19.21,19.21,0,0,0-4.86,3,22,22,0,0,0-2.91,3.17c-.73,1-1.35,1.94-1.84,2.72a4.63,4.63,0,0,1-1.9,1.87,4.15,4.15,0,0,1-4.47-.42l-6.79-4.39.27-.61a43.28,43.28,0,0,1,2.73-5.19,33,33,0,0,1,3.75-5C54.45,150.88,54.8,150.51,55.17,150.14Zm32.52,55.31a10,10,0,0,1,2.94-2,9.72,9.72,0,0,1,3.93-.94,10.59,10.59,0,0,1,3.78.59,9.76,9.76,0,0,1,3.31,2,10,10,0,0,1,2.38,3.23,9.93,9.93,0,0,1,.94,3.94,9.92,9.92,0,0,1-2.66,7,10.27,10.27,0,0,1-3.26,2.36,10.47,10.47,0,0,1-3.94,1,9.75,9.75,0,0,1-3.79-.56,9.86,9.86,0,0,1-3.24-2,10.18,10.18,0,0,1-2.35-3.27h0a10.17,10.17,0,0,1-1-3.88,9.94,9.94,0,0,1,.57-3.79,10.09,10.09,0,0,1,2-3.27C87.45,205.69,87.57,205.57,87.69,205.45Z" style="fill: #20BE4E; transform-origin: 76.1714px 181.328px;" id="el98v9bf2gk9n" class="animable"></path></g><g id="freepik--question-mark--inject-39" class="animable" style="transform-origin: 189.493px 74.3092px;"><path d="M183,93.16a18.62,18.62,0,0,1-3.81-4.22q-3.37-4.83-1.11-8.65l1.12-1.88a8.78,8.78,0,0,1,3.64-3.2c1.51-1.48,2.44-2.11,2.8-1.9,1.78.18,2.81,0,3.11-.48l.32-.53A24.22,24.22,0,0,0,191,68c1.23-1.84,2-2.65,2.39-2.44a6,6,0,0,0,2.45.15l.62.3a1,1,0,0,1,.34,1.51A59.6,59.6,0,0,1,193,76.16c-.22.36-1.61.72-4.2,1.07a7.52,7.52,0,0,0-2.76,1.12,3.25,3.25,0,0,1-1.08.23l-.39-.45c-.32-.19-1,.36-2.13,1.64l-.1.16,0,1.28-.12.22,0,0-.53.41-.42.7a2.17,2.17,0,0,0,.1,1.8,1.66,1.66,0,0,0,.7,1.87,13.37,13.37,0,0,0,3.54,3l.54.32c1.93,1.14,4.5.93,7.71-.65l3.69-1.44.09-.16c1.27-.51,2-.21,2.23.88a3.74,3.74,0,0,1,0,2.24l-1.8,1.69a9.24,9.24,0,0,1-4,1.53,36.52,36.52,0,0,1-7.7.51A6.75,6.75,0,0,1,183,93.16Zm14.55-1.89.07-.11-.19-.18c-.67,0-1.11.16-1.32.52l-.13.22.16.09Q197.28,91.75,197.56,91.27Zm0-1.77.19,0,.1-.17-.16-.09-.26.06,0,.06Zm1.23-2.68-.05,0,.09-.16.06,0Zm-4.32,5.93.41-.19,0-.06-.05,0a.44.44,0,0,0-.49.22Zm-.93.1a3.85,3.85,0,0,0-2.9-.12c-.5-.06-.77,0-.81,0l0,.06.19.54.05,0a9.28,9.28,0,0,0,2.69,0C193,93.42,193.27,93.25,193.5,92.85ZM194,90.4l.06-.11-.11-.06a.74.74,0,0,0-.63.2l-.06.11,0,.17A.65.65,0,0,0,194,90.4Zm-5.32,2.72-.07-.26-.77-.16-.16.27.11.06A.82.82,0,0,0,188.7,93.12Zm-1.87.2.07-.1-.59-.35a5.45,5.45,0,0,0-2.85-.83l-.1.16.1.21.53.32A4.66,4.66,0,0,0,186.83,93.32Zm-1.51-2.71.16.1.07-.11-.16-.1Zm11.53-28.22a8.15,8.15,0,0,1-2.23-2.85c-.45-.46-.65-.75-.58-.85s.48-.08,1.19.19l0-.05.06-.11.27-1.07A3.41,3.41,0,0,1,199,54.46a5.12,5.12,0,0,1,2.61,6l-.26.93C200.9,62.16,199.4,62.5,196.85,62.39ZM191.91,75l.09-.16c.49-.82.49-1.38,0-1.68,0,0-.17.09-.41.33q-.9,1.65-.69,1.77l.27.16C191.42,75.53,191.67,75.39,191.91,75Zm.67-2.36.29-.12.06-.1c.19-.33.18-.58-.05-.76l-.11-.07-.25.29A.75.75,0,0,0,192.58,72.63ZM181.72,90.44l.28,0,.07-.11c.06-.11,0-.24-.28-.39-.4-.23-.65-.26-.75-.08l.09.2Zm12.47-21.86.46-.16.17-.78.75-.78-.32-.19a.89.89,0,0,0-.9,0l-.13.22c.08.19-.05.57-.39,1.15l.14.37Zm5.32-9a2,2,0,0,0-.29-.61c.06-.25.05-.4,0-.44l-.06,0L198,59a.57.57,0,0,0,0,.67l.85.51C199.08,60.18,199.28,60,199.51,59.61Zm-2.12,1.87.38.22,0-.05c0-.3-.43-.87-1.25-1.69l-.17,0-.07.11A2.1,2.1,0,0,0,197.39,61.48Zm-6.95,11,.2-.1-.21-.12-.1.16Zm-5.81,5.26.32.19.16-.26-.16-.1-.29.12ZM179,87l.12-.08a3.1,3.1,0,0,0-.75-2l-.27-.16,0,.06Q177.83,85.15,179,87Zm7-11.86.1-.16L186,74.9q-.54-.32-.78,0l.07.12.06,0C185.74,75.2,186,75.23,186,75.13Zm-7.61,7,.11.06,0,0c.17-.29.16-.51,0-.68l0,0,0,.06A.53.53,0,0,0,178.41,82.08Z" style="fill: rgb(224, 224, 224); transform-origin: 189.493px 74.3092px;" id="elp3x59ts65al" class="animable"></path></g><g id="freepik--question-mark--inject-39" class="animable" style="transform-origin: 312.473px 91.4019px;"><path d="M308.67,68.24q1.57-.37,6.74.43,6.87,1.32,8.11,6.43l.61,2.52a10.5,10.5,0,0,1-.44,5.75c-.05,2.51-.32,3.82-.8,3.93-1.67,1.32-2.42,2.31-2.25,3l.17.72a28.61,28.61,0,0,0,1.88,5.26c.48,2.58.47,3.93,0,4a7.22,7.22,0,0,0-2.21,1.9l-.77.27a1.15,1.15,0,0,1-1.54-1A70.4,70.4,0,0,1,314.25,91q-.18-.72,2.67-4.38a9,9,0,0,0,1.43-3.24,3.62,3.62,0,0,1,.73-1.1l.7.06c.43-.1.58-1.15.45-3.16l-.05-.21-1-1.13-.07-.28H319l.11-.79-.23-.93c-.13-.53-.65-1-1.57-1.45a2,2,0,0,0-2.15-1,15.7,15.7,0,0,0-5.47.41L309,74q-3.89.95-6,7L301,85.19l.05.22c-.66,1.48-1.53,1.85-2.63,1.1s-1.72-1.44-1.84-1.92l.13-2.93A11.07,11.07,0,0,1,298.89,77,43.62,43.62,0,0,1,305,70.19,8.1,8.1,0,0,1,308.67,68.24ZM297.86,81.92l0,.14h.3c.58-.54.82-1.06.7-1.54l-.07-.29-.22.06C298,80.94,297.76,81.48,297.86,81.92Zm1.5,1.46-.2.13.06.21.21,0,.17-.27,0-.07Zm1.18,3.3h.07l.06.21-.07,0Zm-1.24-8.62-.19.5,0,.08.07,0a.52.52,0,0,0,.24-.59Zm.7-.86a4.52,4.52,0,0,0,2.57-2.3c.47-.36.7-.6.67-.69v-.07l-.61-.32-.07,0a11,11,0,0,0-2.29,2.23A1,1,0,0,0,300,77.2Zm1.6,2.51,0,.15.14,0a.88.88,0,0,0,.37-.69l0-.15-.18-.11A.77.77,0,0,0,301.6,79.71ZM303.86,73l.27.16.8-.49-.09-.36-.14,0Q304,72.51,303.86,73Zm1.42-1.72,0,.15.79-.19a6.53,6.53,0,0,0,3.1-1.67l0-.22-.25-.09-.72.18A5.46,5.46,0,0,0,305.28,71.27Zm3.53,1.06-.21,0,0,.14.22,0Zm13.61,33.54a9.65,9.65,0,0,1,4.26.57c.77,0,1.17.1,1.2.25s-.34.46-1.17.81l0,.08,0,.14.66,1.14a4,4,0,0,1-.26,5.55q-4.53,1.17-7.19-2.91l-.55-1Q319,108.9,322.42,105.87Zm-6.25-14.81.05.22q.4,1.65,1.41,1.41c.05,0,.08-.22.08-.63-.4-1.43-.69-2.12-.88-2.07l-.36.09C316.14,90.21,316,90.53,316.17,91.06Zm1.38,2.57-.14.34,0,.14c.11.43.33.63.68.6l.14,0,0-.45A.85.85,0,0,0,317.55,93.63ZM312,69.49l-.25.21,0,.15c0,.14.22.17.56.09.53-.13.76-.31.7-.55l-.25-.09Zm7.53,28.92-.26.52.5.79V101l.43-.11a1.05,1.05,0,0,0,.73-.79l-.07-.28c-.23-.1-.44-.53-.62-1.3l-.43-.2Zm2.91,12s.26.14.75.27c.17.27.3.39.4.37l.07,0,.6-1.29a.69.69,0,0,0-.59-.54l-1.15.27C322.36,109.6,322.33,109.91,322.46,110.44Zm.26-3.34-.5.12v.07a4.77,4.77,0,0,0,2.46.4l.11-.18,0-.15A2.48,2.48,0,0,0,322.72,107.1ZM319.53,92l-.1.25.29-.07-.05-.22Zm.57-9.3-.43.11.08.36.22-.05.15-.34Zm-2.89-12.57,0,.16a3.56,3.56,0,0,0,2.33,1.12l.36-.09,0-.07C319.76,70.92,318.88,70.55,317.21,70.14Zm3.85,15.93.05.21.15,0q.72-.18.69-.63l-.16,0-.08,0C321.24,85.77,321,85.92,321.06,86.07Zm.71-12.23-.15,0,0,.07c.09.39.29.57.59.54h.07l0-.08A.64.64,0,0,0,321.77,73.84Z" style="fill: #20BE4E; transform-origin: 312.473px 91.4019px;" id="eli29olu9b39" class="animable"></path></g><g id="freepik--question-mark--inject-39"><g style="opacity: 0.65; transform-origin: 312.473px 91.4019px;" class="animable" id="elpaaja9yjhhe"><path d="M308.67,68.24q1.57-.37,6.74.43,6.87,1.32,8.11,6.43l.61,2.52a10.5,10.5,0,0,1-.44,5.75c-.05,2.51-.32,3.82-.8,3.93-1.67,1.32-2.42,2.31-2.25,3l.17.72a28.61,28.61,0,0,0,1.88,5.26c.48,2.58.47,3.93,0,4a7.22,7.22,0,0,0-2.21,1.9l-.77.27a1.15,1.15,0,0,1-1.54-1A70.4,70.4,0,0,1,314.25,91q-.18-.72,2.67-4.38a9,9,0,0,0,1.43-3.24,3.62,3.62,0,0,1,.73-1.1l.7.06c.43-.1.58-1.15.45-3.16l-.05-.21-1-1.13-.07-.28H319l.11-.79-.23-.93c-.13-.53-.65-1-1.57-1.45a2,2,0,0,0-2.15-1,15.7,15.7,0,0,0-5.47.41L309,74q-3.89.95-6,7L301,85.19l.05.22c-.66,1.48-1.53,1.85-2.63,1.1s-1.72-1.44-1.84-1.92l.13-2.93A11.07,11.07,0,0,1,298.89,77,43.62,43.62,0,0,1,305,70.19,8.1,8.1,0,0,1,308.67,68.24ZM297.86,81.92l0,.14h.3c.58-.54.82-1.06.7-1.54l-.07-.29-.22.06C298,80.94,297.76,81.48,297.86,81.92Zm1.5,1.46-.2.13.06.21.21,0,.17-.27,0-.07Zm1.18,3.3h.07l.06.21-.07,0Zm-1.24-8.62-.19.5,0,.08.07,0a.52.52,0,0,0,.24-.59Zm.7-.86a4.52,4.52,0,0,0,2.57-2.3c.47-.36.7-.6.67-.69v-.07l-.61-.32-.07,0a11,11,0,0,0-2.29,2.23A1,1,0,0,0,300,77.2Zm1.6,2.51,0,.15.14,0a.88.88,0,0,0,.37-.69l0-.15-.18-.11A.77.77,0,0,0,301.6,79.71ZM303.86,73l.27.16.8-.49-.09-.36-.14,0Q304,72.51,303.86,73Zm1.42-1.72,0,.15.79-.19a6.53,6.53,0,0,0,3.1-1.67l0-.22-.25-.09-.72.18A5.46,5.46,0,0,0,305.28,71.27Zm3.53,1.06-.21,0,0,.14.22,0Zm13.61,33.54a9.65,9.65,0,0,1,4.26.57c.77,0,1.17.1,1.2.25s-.34.46-1.17.81l0,.08,0,.14.66,1.14a4,4,0,0,1-.26,5.55q-4.53,1.17-7.19-2.91l-.55-1Q319,108.9,322.42,105.87Zm-6.25-14.81.05.22q.4,1.65,1.41,1.41c.05,0,.08-.22.08-.63-.4-1.43-.69-2.12-.88-2.07l-.36.09C316.14,90.21,316,90.53,316.17,91.06Zm1.38,2.57-.14.34,0,.14c.11.43.33.63.68.6l.14,0,0-.45A.85.85,0,0,0,317.55,93.63ZM312,69.49l-.25.21,0,.15c0,.14.22.17.56.09.53-.13.76-.31.7-.55l-.25-.09Zm7.53,28.92-.26.52.5.79V101l.43-.11a1.05,1.05,0,0,0,.73-.79l-.07-.28c-.23-.1-.44-.53-.62-1.3l-.43-.2Zm2.91,12s.26.14.75.27c.17.27.3.39.4.37l.07,0,.6-1.29a.69.69,0,0,0-.59-.54l-1.15.27C322.36,109.6,322.33,109.91,322.46,110.44Zm.26-3.34-.5.12v.07a4.77,4.77,0,0,0,2.46.4l.11-.18,0-.15A2.48,2.48,0,0,0,322.72,107.1ZM319.53,92l-.1.25.29-.07-.05-.22Zm.57-9.3-.43.11.08.36.22-.05.15-.34Zm-2.89-12.57,0,.16a3.56,3.56,0,0,0,2.33,1.12l.36-.09,0-.07C319.76,70.92,318.88,70.55,317.21,70.14Zm3.85,15.93.05.21.15,0q.72-.18.69-.63l-.16,0-.08,0C321.24,85.77,321,85.92,321.06,86.07Zm.71-12.23-.15,0,0,.07c.09.39.29.57.59.54h.07l0-.08A.64.64,0,0,0,321.77,73.84Z" style="fill: rgb(255, 255, 255); transform-origin: 312.473px 91.4019px;" id="eldztpbhjuqs" class="animable"></path></g></g><g id="freepik--question-mark--inject-39" class="animable" style="transform-origin: 114.887px 409.173px;"><path d="M116.67,430.66c-1,.17-3-.08-6.08-.77q-6.14-1.58-7-6.28l-.41-2.32a9.59,9.59,0,0,1,.72-5.17c.2-2.27.51-3.44.95-3.52,1.59-1.09,2.32-2,2.21-2.57l-.11-.66a25.77,25.77,0,0,0-1.41-4.87q-.42-3.54.24-3.66a6.41,6.41,0,0,0,2.11-1.6l.72-.2c.75-.13,1.19.2,1.33,1a64.05,64.05,0,0,1,2.94,9.72q.12.66-2.67,3.81a8.22,8.22,0,0,0-1.47,2.86c-.4.61-.64.93-.72.94l-.64-.09c-.39.07-.59,1-.59,2.83l0,.2.87,1.08,0,.26h.06l-.15.71.16.86c.08.48.53,1,1.34,1.4a1.78,1.78,0,0,0,1.88,1,14.11,14.11,0,0,0,5-.06l.67-.11q3.57-.63,5.84-6l2-3.76,0-.2c.68-1.3,1.49-1.58,2.44-.84s1.48,1.4,1.56,1.84l-.29,2.65a10,10,0,0,1-2.22,4.07,39.43,39.43,0,0,1-5.93,5.83A7.28,7.28,0,0,1,116.67,430.66Zm10.55-11.75,0-.14-.28,0a1.5,1.5,0,0,0-.71,1.36l0,.26.2,0C127,419.78,127.29,419.3,127.22,418.91ZM126,417.49l.19-.1,0-.2-.2,0-.16.23v.07Zm-.88-3.05H125l0-.2H125Zm.64,7.87.19-.44v-.07h-.07a.49.49,0,0,0-.25.53Zm-.69.74a4.09,4.09,0,0,0-2.46,1.93c-.45.31-.66.5-.65.59v.07l.54.32.06,0a10.15,10.15,0,0,0,2.2-1.88A.93.93,0,0,0,125,423.05Zm-1.31-2.37,0-.13-.13,0a.78.78,0,0,0-.37.61l0,.13.16.11A.7.7,0,0,0,123.71,420.68Zm-2.43,6-.23-.16-.75.4.06.33.13,0C120.93,427.11,121.2,426.93,121.28,426.64Zm-1.38,1.47,0-.13-.73.13a5.85,5.85,0,0,0-2.9,1.33l0,.2.22.1.67-.12A5,5,0,0,0,119.9,428.11ZM116.77,427l.19,0,0-.13-.2,0Zm-10.41-31.13a8.83,8.83,0,0,1-3.82-.76c-.69-.06-1.05-.16-1.07-.29s.34-.4,1.11-.68V394l0-.13-.52-1.07a3.65,3.65,0,0,1,.55-5,5.51,5.51,0,0,1,6.33,3l.44.95Q109.6,393.28,106.36,395.83Zm4.82,13.75,0-.19c-.18-1-.57-1.47-1.19-1.36,0,0-.08.19-.11.56.28,1.32.51,2,.68,1.93l.33-.06C111.16,410.36,111.26,410.07,111.18,409.58Zm-1.11-2.39.15-.3,0-.14c-.07-.39-.26-.59-.58-.58l-.13,0v.41A.8.8,0,0,0,110.07,407.19Zm3.63,22.15.25-.18,0-.13c0-.13-.19-.17-.5-.12-.48.09-.7.24-.67.46l.23.1Zm-5.16-26.59.26-.46-.4-.75.06-1.17-.4.07a1,1,0,0,0-.7.67l0,.27c.2.1.36.5.49,1.21l.37.2Zm-2-11.06a2.05,2.05,0,0,0-.66-.29c-.14-.25-.25-.37-.34-.35h-.07l-.62,1.13a.66.66,0,0,0,.51.53l1.06-.19C106.63,392.46,106.68,392.18,106.59,391.69Zm-.42,3,.46-.08v-.07a4.41,4.41,0,0,0-2.21-.5l-.11.16,0,.13A2.24,2.24,0,0,0,106.17,394.7Zm2,13.84.09-.22-.26,0,0,.2Zm-1,8.38.39-.07-.05-.34-.2,0-.16.3ZM109,428.46l0-.15a3.29,3.29,0,0,0-2-1.14l-.33.06v.07C106.78,427.6,107.55,428,109,428.46Zm-2.57-14.63,0-.2-.13,0c-.44.08-.66.25-.66.53l.14,0h.07C106.28,414.09,106.49,414,106.47,413.83Zm-1.34,11,.13,0v-.06c-.06-.36-.23-.53-.5-.53h-.07l0,.07C104.75,424.62,104.89,424.8,105.13,424.85Z" style="fill: #20BE4E; transform-origin: 114.887px 409.173px;" id="el78d4y1q561" class="animable"></path></g></g></g><g id="freepik--Dots--inject-39" class="animable animator-active" style="transform-origin: 252.565px 233.2px;"><g id="freepik--dots--inject-39" class="animable" style="transform-origin: 252.565px 233.2px;"><path d="M466.49,197.8a4.94,4.94,0,1,1-4.94-4.93A4.94,4.94,0,0,1,466.49,197.8Z" style="fill: #20BE4E; transform-origin: 461.55px 197.81px;" id="eldopsgfhtkqt" class="animable"></path><g id="el0a53342c7kfr"><path d="M466.49,197.8a4.94,4.94,0,1,1-4.94-4.93A4.94,4.94,0,0,1,466.49,197.8Z" style="fill: rgb(255, 255, 255); opacity: 0.55; transform-origin: 461.55px 197.81px;" class="animable" id="elwwuoyplijgm"></path></g><path d="M35.45,196.89A4.94,4.94,0,1,1,30.52,192,4.93,4.93,0,0,1,35.45,196.89Z" style="fill: #20BE4E; transform-origin: 30.5103px 196.94px;" id="el128g6150csu" class="animable"></path><g id="el9h97h8b9z6b"><path d="M35.45,196.89A4.94,4.94,0,1,1,30.52,192,4.93,4.93,0,0,1,35.45,196.89Z" style="fill: rgb(255, 255, 255); opacity: 0.55; transform-origin: 30.5103px 196.94px;" class="animable" id="elf8juvig1c3"></path></g><path d="M473.63,344.65a5.94,5.94,0,1,1,5.93-5.94A5.95,5.95,0,0,1,473.63,344.65Zm0-9.87a3.94,3.94,0,1,0,3.93,3.93A3.94,3.94,0,0,0,473.63,334.78Z" style="fill: rgb(224, 224, 224); transform-origin: 473.62px 338.71px;" id="el7oswwetq6dk" class="animable"></path><path d="M251,88.07a8.71,8.71,0,1,1,8.7-8.7A8.71,8.71,0,0,1,251,88.07Zm0-15.41a6.71,6.71,0,1,0,6.7,6.71A6.72,6.72,0,0,0,251,72.66Z" style="fill: rgb(224, 224, 224); transform-origin: 250.99px 79.36px;" id="el5rwrkwm75ip" class="animable"></path><path d="M71.53,395.75a5.93,5.93,0,1,1,5.93-5.93A5.94,5.94,0,0,1,71.53,395.75Zm0-9.86a3.93,3.93,0,1,0,3.93,3.93A3.93,3.93,0,0,0,71.53,385.89Z" style="fill: rgb(224, 224, 224); transform-origin: 71.53px 389.82px;" id="elsxkag3jno4m" class="animable"></path></g></g><g id="freepik--speech-bubble-4--inject-39" class="animable" style="transform-origin: 384.71px 381.865px;"><g id="freepik--When--inject-39" class="animable" style="transform-origin: 384.71px 381.865px;"><path id="freepik--speech-bubble--inject-39" d="M384.69,342.88a57.74,57.74,0,0,0-18.53,3c-4-2.5-9.38-3.47-15-2.65s-10.49,3.41-12.86,6.92L337,352.09l2.28-.5c4.85-1.06,9.32-.19,12,2.26-9.32,7.32-14.65,17.48-14.65,28,0,21.51,21.57,39,48.08,39s48.08-17.48,48.08-39S411.2,342.88,384.69,342.88Zm0,76.09c-25.48,0-46.2-16.65-46.2-37.11,0-10.24,5.38-20.14,14.73-27.14l.8-.6-.65-.76c-2.2-2.65-5.88-4.09-10.11-4.09-.58,0-1.17,0-1.76.08a18.86,18.86,0,0,1,10-4.26c5.24-.77,10.51.2,14.06,2.61l.38.26.45-.16a55.7,55.7,0,0,1,18.34-3c25.48,0,46.21,16.65,46.21,37.1S410.17,419,384.69,419Z" style="fill: rgb(69, 90, 100); transform-origin: 384.71px 381.865px;" class="animable"></path><path d="M430.9,381.86c0,20.46-20.73,37.11-46.21,37.11s-46.2-16.65-46.2-37.11c0-10.24,5.38-20.14,14.73-27.14l.8-.6-.65-.76c-2.2-2.65-5.88-4.09-10.11-4.09-.58,0-1.17,0-1.76.08a18.86,18.86,0,0,1,10-4.26c5.24-.77,10.51.2,14.06,2.61l.38.26.45-.16a55.7,55.7,0,0,1,18.34-3C410.17,344.76,430.9,361.41,430.9,381.86Z" style="fill: rgb(255, 255, 255); transform-origin: 384.695px 381.885px;" id="elpveqxl9fr4q" class="animable"></path><path d="M351,390.76l-3.61-17.44a.6.6,0,0,1,0-.23c0-.08,0-.13,0-.15,0-.43.46-.65,1.4-.65h.62c.93,0,1.44.24,1.51.7l1.67,11,.32,2.38.16,1.32c.13-.86.33-2.11.6-3.72l1.94-11.14a.54.54,0,0,1,.32-.42,2.19,2.19,0,0,1,.84-.12h1.05a2.29,2.29,0,0,1,.85.12.54.54,0,0,1,.34.42L360.91,384c.09.4.21,1.14.35,2.21,0,.4.11.91.22,1.54L362,384l1.7-11c.05-.46.55-.7,1.48-.7h.51c1,0,1.43.22,1.43.65l-.05.38-3.64,17.44c-.07.34-.46.51-1.16.51h-1.54c-.7,0-1.08-.17-1.13-.51l-2-10.16-.35-3.05-.35,3.05-2.05,10.16c-.07.34-.45.51-1.13.51h-1.54C351.45,391.27,351.06,391.1,351,390.76Z" style="fill: #20BE4E; transform-origin: 357.249px 381.783px;" id="elwx6bx1q0j7" class="animable"></path><path d="M369.08,390.49V373.07q0-.78,1.38-.78h.89c.9,0,1.34.26,1.34.78v7h5.48v-7c0-.52.46-.78,1.37-.78h.87c.91,0,1.37.26,1.37.78v17.42c0,.52-.46.78-1.37.78h-.87c-.91,0-1.37-.26-1.37-.78V383.1h-5.48v7.39c0,.52-.44.78-1.34.78h-.89Q369.08,391.27,369.08,390.49Z" style="fill: #20BE4E; transform-origin: 375.43px 381.78px;" id="elo1qhv3gn18" class="animable"></path><path d="M385.48,391a1.07,1.07,0,0,1-.22-.77V373.34a1,1,0,0,1,.22-.76.88.88,0,0,1,.7-.23h7.87a.57.57,0,0,1,.54.28,1.81,1.81,0,0,1,.16.88v.7a1.79,1.79,0,0,1-.16.87.58.58,0,0,1-.54.29h-5.2v4.69h4.63a.57.57,0,0,1,.54.28,1.81,1.81,0,0,1,.16.88v.7a1.77,1.77,0,0,1-.16.87.58.58,0,0,1-.54.29h-4.63v5.12h5.23a.56.56,0,0,1,.51.27,1.81,1.81,0,0,1,.16.89v.7a1.81,1.81,0,0,1-.16.89.56.56,0,0,1-.51.27h-7.9A.92.92,0,0,1,385.48,391Z" style="fill: #20BE4E; transform-origin: 390.004px 381.785px;" id="elw1h3zt7fyz" class="animable"></path><path d="M397.45,390.49V373.07c0-.52.45-.78,1.37-.78h.7a1.84,1.84,0,0,1,.78.14,1.05,1.05,0,0,1,.49.54l5.34,9.92a17.1,17.1,0,0,1,.83,2l.14-.06a9.89,9.89,0,0,1-.22-2v-9.71q0-.78,1.38-.78h.54c.91,0,1.37.26,1.37.78v17.42c0,.52-.46.78-1.37.78h-.54a2.08,2.08,0,0,1-.81-.13.91.91,0,0,1-.49-.51l-5.58-10.3a15.68,15.68,0,0,1-.73-1.7l-.13.05a9,9,0,0,1,.21,1.84v10c0,.52-.45.78-1.37.78h-.54C397.9,391.27,397.45,391,397.45,390.49Z" style="fill: #20BE4E; transform-origin: 403.81px 381.819px;" id="elhfey5fa2bsd" class="animable"></path><path d="M414.86,385.25a.62.62,0,0,1-.27-.56,6.69,6.69,0,0,1,1.76-4.23,3.62,3.62,0,0,1,.35-.43,17.64,17.64,0,0,0,1.33-1.68,2.32,2.32,0,0,0,.42-1.28,1.77,1.77,0,0,0-.55-1.41,2.4,2.4,0,0,0-1.61-.48,4.12,4.12,0,0,0-2.05.64L414,376a.79.79,0,0,1-.26.08.88.88,0,0,1-.59-.36,4.55,4.55,0,0,1-.56-.84,1.68,1.68,0,0,1-.25-.74c0-.56.48-1,1.43-1.39a8.17,8.17,0,0,1,3-.55,5.9,5.9,0,0,1,3.91,1.21,4.07,4.07,0,0,1,1.46,3.29,4.43,4.43,0,0,1-.34,1.79,5.78,5.78,0,0,1-.78,1.37c-.3.37-.72.85-1.28,1.42a14.6,14.6,0,0,0-1.52,1.78,4,4,0,0,0-.66,1.73.72.72,0,0,1-.35.52,2,2,0,0,1-.89.15h-.54A1.73,1.73,0,0,1,414.86,385.25Zm-.62,5.24v-2.24c0-.5.48-.75,1.43-.75h.7c1,0,1.46.25,1.46.75v2.24c0,.52-.49.78-1.46.78h-.7C414.72,391.27,414.24,391,414.24,390.49Z" style="fill: #20BE4E; transform-origin: 417.242px 381.731px;" id="el6c66o0388x2" class="animable"></path></g></g><g id="freepik--speech-bubble-3--inject-39" class="animable" style="transform-origin: 411.895px 103.26px;"><g id="freepik--What--inject-39" class="animable" style="transform-origin: 411.895px 103.26px;"><path id="freepik--speech-bubble--inject-39" d="M411.9,57.2c-31.31,0-56.8,20.66-56.8,46.05,0,12.45,6.29,24.45,17.3,33.1-3.11,2.9-8.39,3.92-14.12,2.67l-2.7-.59,1.55,2.3c2.8,4.14,8.47,7.2,15.18,8.17s13-.18,17.7-3.14a67.68,67.68,0,0,0,21.89,3.56c31.32,0,56.79-20.66,56.79-46.07S443.22,57.2,411.9,57.2Zm0,89.9a66,66,0,0,1-21.67-3.6l-.52-.19-.47.31c-4.2,2.84-10.42,4-16.61,3.09a22.33,22.33,0,0,1-11.75-5c.69.05,1.39.09,2.07.09,5,0,9.35-1.7,12-4.82l.74-.91-.93-.7c-11.06-8.28-17.4-20-17.4-32.08,0-24.17,24.48-43.83,54.58-43.83s54.59,19.66,54.59,43.83S442,147.1,411.9,147.1Z" style="fill: #20BE4E; transform-origin: 411.895px 103.26px;" class="animable"></path><path d="M466.49,103.25c0,24.18-24.5,43.85-54.59,43.85a66,66,0,0,1-21.67-3.6l-.52-.19-.47.31c-4.2,2.84-10.42,4-16.61,3.09a22.33,22.33,0,0,1-11.75-5c.69.05,1.39.09,2.07.09,5,0,9.35-1.7,12-4.82l.74-.91-.93-.7c-11.06-8.28-17.4-20-17.4-32.08,0-24.17,24.48-43.83,54.58-43.83S466.49,79.08,466.49,103.25Z" style="fill: rgb(255, 255, 255); transform-origin: 411.925px 103.28px;" id="eljhlmisd1o9p" class="animable"></path><path d="M373.14,116.42l-4.46-21.54a.65.65,0,0,1,0-.28c0-.1,0-.16,0-.18,0-.54.57-.8,1.73-.8h.76c1.16,0,1.78.29,1.87.86l2.06,13.59.4,2.92.2,1.64c.16-1.07.4-2.6.73-4.6l2.4-13.75a.66.66,0,0,1,.4-.51,2.66,2.66,0,0,1,1-.15h1.3a2.78,2.78,0,0,1,1.05.15.65.65,0,0,1,.41.51l2.37,13.79c.11.48.25,1.39.43,2.72.05.49.13,1.13.27,1.9l.63-4.62,2.1-13.59c.06-.57.67-.86,1.83-.86h.63c1.18,0,1.77.26,1.77.8l-.07.46-4.5,21.54c-.08.42-.56.63-1.43.63h-1.89c-.87,0-1.34-.21-1.4-.63l-2.5-12.55-.43-3.76-.43,3.76-2.54,12.55c-.08.42-.55.63-1.39.63h-1.9C373.7,117.05,373.23,116.84,373.14,116.42Z" style="fill: rgb(69, 90, 100); transform-origin: 380.842px 105.333px;" id="el56gi1y3p9ft" class="animable"></path><path d="M395.48,116.09V94.58c0-.64.56-1,1.69-1h1.1c1.11,0,1.67.32,1.67,1v8.62h6.75V94.58c0-.64.57-1,1.7-1h1.07c1.13,0,1.7.32,1.7,1v21.51c0,.64-.57,1-1.7,1h-1.07c-1.13,0-1.7-.32-1.7-1V107h-6.75v9.12c0,.64-.56,1-1.67,1h-1.1C396,117.05,395.48,116.73,395.48,116.09Z" style="fill: rgb(69, 90, 100); transform-origin: 403.32px 105.35px;" id="elnv6iamj1cu" class="animable"></path><path d="M413.52,116.39a4.85,4.85,0,0,1,.07-.57l5.46-21.37c.13-.56.73-.83,1.79-.83h1.77c1.06,0,1.67.27,1.83.83l5.43,21.37q.06.47.06.57c0,.44-.45.66-1.36.66h-1.33c-1,0-1.48-.21-1.57-.63l-1.06-4.56h-5.8l-1.06,4.56c-.09.42-.57.63-1.43.63H415C414,117.05,413.52,116.83,413.52,116.39ZM424,108.33l-1.79-7.76c-.16-.71-.29-1.49-.4-2.36h-.17c-.11.87-.25,1.65-.4,2.36l-1.76,7.76Z" style="fill: rgb(69, 90, 100); transform-origin: 421.725px 105.335px;" id="elbhe41eyqsel" class="animable"></path><path d="M434.59,116.09V97.41h-4.06a.7.7,0,0,1-.66-.35,2.16,2.16,0,0,1-.2-1.08v-.87a2.21,2.21,0,0,1,.2-1.08.7.7,0,0,1,.66-.35h12.59a.75.75,0,0,1,.68.34,2.11,2.11,0,0,1,.21,1.09V96a2.15,2.15,0,0,1-.21,1.1.76.76,0,0,1-.68.33h-4.07v18.68c0,.64-.56,1-1.69,1h-1.07C435.16,117.05,434.59,116.73,434.59,116.09Z" style="fill: rgb(69, 90, 100); transform-origin: 436.84px 105.394px;" id="eligkz4vw1oj" class="animable"></path><path d="M448.21,109.61a.75.75,0,0,1-.33-.68A8.29,8.29,0,0,1,450,103.7a4.72,4.72,0,0,1,.43-.53,19.54,19.54,0,0,0,1.65-2.08,2.88,2.88,0,0,0,.52-1.58,2.16,2.16,0,0,0-.69-1.73,2.89,2.89,0,0,0-2-.6,5,5,0,0,0-2.53.8l-.35.16a.81.81,0,0,1-.31.1,1.06,1.06,0,0,1-.73-.45,4.78,4.78,0,0,1-.7-1,2.2,2.2,0,0,1-.3-.91c0-.69.58-1.26,1.76-1.72a10.29,10.29,0,0,1,3.7-.68,7.3,7.3,0,0,1,4.82,1.5,5,5,0,0,1,1.8,4.06,5.55,5.55,0,0,1-.42,2.21,6.73,6.73,0,0,1-1,1.68,23.43,23.43,0,0,1-1.58,1.77,16.62,16.62,0,0,0-1.88,2.2,5.16,5.16,0,0,0-.82,2.13.94.94,0,0,1-.43.65,2.46,2.46,0,0,1-1.1.18h-.67A2,2,0,0,1,448.21,109.61Zm-.77,6.48v-2.77q0-.93,1.77-.93h.86q1.8,0,1.8.93v2.77q0,1-1.8,1h-.86Q447.44,117.05,447.44,116.09Z" style="fill: rgb(69, 90, 100); transform-origin: 451.032px 105.28px;" id="elqk3i8o46igr" class="animable"></path></g></g><g id="freepik--speech-bubble-2--inject-39" class="animable" style="transform-origin: 99.11px 84.7151px;"><g id="freepik--Why--inject-39" class="animable" style="transform-origin: 99.11px 84.7151px;"><path id="freepik--speech-bubble--inject-39" d="M132.26,112.5c9.25-7.26,14.53-17.33,14.53-27.78,0-21.33-21.38-38.67-47.67-38.67S51.43,63.39,51.43,84.72s21.4,38.66,47.69,38.66a56.93,56.93,0,0,0,18.36-3c3.93,2.48,9.31,3.44,14.86,2.63s10.41-3.38,12.75-6.86l1.31-1.93-2.28.49C139.31,115.79,134.88,114.93,132.26,112.5Zm-.19,8.69c-5.19.76-10.41-.2-13.94-2.59l-.38-.26-.45.15a55,55,0,0,1-18.18,3C73.85,121.51,53.3,105,53.3,84.72S73.85,47.91,99.12,47.91s45.82,16.52,45.82,36.81c0,10.16-5.33,20-14.62,26.92l-.78.59.63.75c2.2,2.63,5.84,4.06,10,4.06.57,0,1.16,0,1.75-.08A18.67,18.67,0,0,1,132.07,121.19Z" style="fill: rgb(69, 90, 100); transform-origin: 99.11px 84.7151px;" class="animable"></path><path d="M140.2,117c.57,0,1.16,0,1.75-.08a18.67,18.67,0,0,1-9.88,4.23c-5.19.76-10.41-.2-13.94-2.59l-.38-.26-.45.15a55,55,0,0,1-18.18,3C73.85,121.51,53.3,105,53.3,84.72S73.85,47.91,99.12,47.91s45.82,16.52,45.82,36.81c0,10.16-5.33,20-14.62,26.92l-.78.59.63.75C132.37,115.61,136,117,140.2,117Z" style="fill: rgb(255, 255, 255); transform-origin: 99.12px 84.6803px;" id="el2hn2v7n3t7q" class="animable"></path><path d="M70,95.57,66,76.13a.69.69,0,0,1,0-.25,1.49,1.49,0,0,0,0-.17c0-.48.52-.72,1.57-.72h.69q1.56,0,1.68.78L71.79,88l.36,2.64.18,1.48c.14-1,.36-2.35.66-4.15l2.17-12.41a.55.55,0,0,1,.36-.46,2.38,2.38,0,0,1,.93-.14h1.17a2.47,2.47,0,0,1,.94.14.59.59,0,0,1,.38.46L81.07,88q.15.66.39,2.46c0,.44.12,1,.24,1.72L82.27,88l1.9-12.26q.09-.78,1.65-.78h.57Q88,75,88,75.71l-.06.42-4,19.44q-.12.57-1.29.57H80.86q-1.17,0-1.26-.57L77.35,84.25,77,80.85l-.39,3.4L74.28,95.57q-.12.57-1.26.57H71.31Q70.14,96.14,70,95.57Z" style="fill: #20BE4E; transform-origin: 76.9943px 85.5485px;" id="el0qlom7bzds29" class="animable"></path><path d="M90.18,95.27V75.86q0-.87,1.53-.87h1q1.5,0,1.5.87v7.78h6.1V75.86q0-.87,1.53-.87h1q1.53,0,1.53.87V95.27q0,.87-1.53.87h-1q-1.53,0-1.53-.87V87H94.2v8.23q0,.87-1.5.87h-1Q90.18,96.14,90.18,95.27Z" style="fill: #20BE4E; transform-origin: 97.275px 85.565px;" id="elpupj66ebihp" class="animable"></path><path d="M111.53,95.27V86.86l-4.77-10.61a1.49,1.49,0,0,1-.24-.69q0-.57,1.59-.57h1.2a3.44,3.44,0,0,1,1,.12.63.63,0,0,1,.46.42l2.86,7.75,2.82-7.78a.61.61,0,0,1,.48-.4,4,4,0,0,1,1-.11h1q1.65,0,1.65.57a2.72,2.72,0,0,1-.21.69L115.56,87v8.32q0,.87-1.53.87h-.93C112.05,96.14,111.53,95.85,111.53,95.27Z" style="fill: #20BE4E; transform-origin: 113.55px 85.5894px;" id="elhhpt8j20p2m" class="animable"></path><path d="M124.27,89.43a.69.69,0,0,1-.3-.62,7.44,7.44,0,0,1,2-4.71,4,4,0,0,1,.39-.49,19.39,19.39,0,0,0,1.49-1.87,2.59,2.59,0,0,0,.47-1.43,2,2,0,0,0-.62-1.56,2.64,2.64,0,0,0-1.79-.54,4.57,4.57,0,0,0-2.28.72l-.32.15a.78.78,0,0,1-.28.09,1,1,0,0,1-.66-.41,4.46,4.46,0,0,1-.63-.93,2,2,0,0,1-.27-.82c0-.63.53-1.14,1.59-1.55a9.15,9.15,0,0,1,3.33-.62,6.61,6.61,0,0,1,4.36,1.35,4.55,4.55,0,0,1,1.62,3.67,5.09,5.09,0,0,1-.38,2,6.58,6.58,0,0,1-.87,1.51,21.2,21.2,0,0,1-1.42,1.6,16,16,0,0,0-1.7,2,4.68,4.68,0,0,0-.74,1.92.83.83,0,0,1-.39.59,2.19,2.19,0,0,1-1,.16h-.6A1.82,1.82,0,0,1,124.27,89.43Zm-.69,5.84V92.78q0-.84,1.59-.84H126q1.62,0,1.62.84v2.49q0,.87-1.62.87h-.78Q123.58,96.14,123.58,95.27Z" style="fill: #20BE4E; transform-origin: 126.922px 85.4855px;" id="elgenkixsl25" class="animable"></path></g></g><g id="freepik--speech-bubble-1--inject-39" class="animable" style="transform-origin: 79.725px 331.17px;"><g id="freepik--Where--inject-39" class="animable" style="transform-origin: 79.725px 331.17px;"><path id="freepik--speech-bubble--inject-39" d="M110.48,305.39c2.42-2.26,6.54-3.05,11-2.08l2.11.46-1.21-1.8c-2.18-3.22-6.61-5.6-11.84-6.36s-10.14.13-13.78,2.44a52.88,52.88,0,0,0-17.05-2.76c-24.4,0-44.26,16.09-44.26,35.89s19.86,35.87,44.26,35.87S124,351,124,331.18C124,321.48,119.05,312.12,110.48,305.39ZM79.71,365.33c-23.45,0-42.53-15.33-42.53-34.15S56.26,297,79.71,297a51.27,51.27,0,0,1,16.88,2.8L97,300l.35-.24c3.28-2.2,8.12-3.11,12.94-2.4a17.43,17.43,0,0,1,9.17,3.93c-.54-.05-1.09-.08-1.62-.08-3.89,0-7.28,1.33-9.32,3.76l-.58.7.73.55c8.61,6.45,13.56,15.56,13.56,25C122.23,350,103.16,365.33,79.71,365.33Z" style="fill: #20BE4E; transform-origin: 79.725px 331.17px;" class="animable"></path><path d="M122.23,331.18c0,18.82-19.07,34.15-42.52,34.15S37.18,350,37.18,331.18,56.26,297,79.71,297a51.27,51.27,0,0,1,16.88,2.8L97,300l.35-.24c3.28-2.2,8.12-3.11,12.94-2.4a17.43,17.43,0,0,1,9.17,3.93c-.54-.05-1.09-.08-1.62-.08-3.89,0-7.28,1.33-9.32,3.76l-.58.7.73.55C117.28,312.63,122.23,321.74,122.23,331.18Z" style="fill: rgb(255, 255, 255); transform-origin: 79.705px 331.165px;" id="elmcodjbmzy0h" class="animable"></path><path d="M47.34,338.61l-3-14.62a.41.41,0,0,1,0-.19.85.85,0,0,0,0-.13q0-.54,1.17-.54H46c.79,0,1.21.19,1.27.59l1.4,9.22.27,2,.14,1.11c.1-.72.27-1.76.49-3.12l1.63-9.33a.46.46,0,0,1,.27-.35,1.79,1.79,0,0,1,.7-.1h.88a1.9,1.9,0,0,1,.72.1.47.47,0,0,1,.28.35l1.6,9.36c.08.33.18.95.3,1.85q0,.49.18,1.29l.43-3.14L58,323.72c0-.4.46-.59,1.24-.59h.43q1.2,0,1.2.54l-.05.32-3,14.62c-.06.28-.38.43-1,.43H55.49c-.58,0-.9-.15-.94-.43l-1.7-8.52-.29-2.56-.3,2.56-1.71,8.52c-.07.28-.38.43-.95.43H48.31C47.72,339,47.4,338.89,47.34,338.61Z" style="fill: rgb(69, 90, 100); transform-origin: 52.5994px 331.085px;" id="elntcggjdr5g" class="animable"></path><path d="M62.5,338.38v-14.6c0-.43.38-.65,1.15-.65h.75c.75,0,1.13.22,1.13.65v5.86h4.58v-5.86c0-.43.39-.65,1.16-.65H72c.77,0,1.15.22,1.15.65v14.6c0,.44-.38.66-1.15.66h-.72c-.77,0-1.16-.22-1.16-.66v-6.19H65.53v6.19c0,.44-.38.66-1.13.66h-.75C62.88,339,62.5,338.82,62.5,338.38Z" style="fill: rgb(69, 90, 100); transform-origin: 67.825px 331.085px;" id="elnygyme3if9c" class="animable"></path><path d="M76.24,338.8a.92.92,0,0,1-.18-.64V324a.91.91,0,0,1,.18-.64.76.76,0,0,1,.59-.2h6.59a.49.49,0,0,1,.46.24,1.55,1.55,0,0,1,.13.74v.58a1.55,1.55,0,0,1-.13.74.48.48,0,0,1-.46.23H79.06v3.94H83a.49.49,0,0,1,.45.23,1.56,1.56,0,0,1,.14.74v.59a1.52,1.52,0,0,1-.14.73.47.47,0,0,1-.45.24H79.06v4.29h4.39a.48.48,0,0,1,.43.23,1.53,1.53,0,0,1,.13.74V338a1.55,1.55,0,0,1-.13.75.47.47,0,0,1-.43.22H76.83A.76.76,0,0,1,76.24,338.8Z" style="fill: rgb(69, 90, 100); transform-origin: 80.035px 331.067px;" id="elhckgfybv8qn" class="animable"></path><path d="M86.34,338.38V324a.86.86,0,0,1,.19-.63.78.78,0,0,1,.6-.21h3.64q4.55,0,4.54,4.3a4,4,0,0,1-2.12,3.82v.09a4.16,4.16,0,0,1,1.53,2.46l1.36,4.36c0,.05,0,.1,0,.15a.39.39,0,0,1,0,.14c0,.35-.41.52-1.22.52h-.66c-.71,0-1.1-.17-1.18-.52l-1.24-4.33a2.48,2.48,0,0,0-.62-1.07,1.67,1.67,0,0,0-1.07-.29h-.84v5.58q0,.66-1.2.66h-.61Q86.34,339,86.34,338.38ZM90.93,330a1.23,1.23,0,0,0,1-.61,2.73,2.73,0,0,0,.43-1.62,2.56,2.56,0,0,0-.41-1.6,1.41,1.41,0,0,0-1.15-.51H89.3V330Z" style="fill: rgb(69, 90, 100); transform-origin: 91.211px 331.094px;" id="elidvfqsp517r" class="animable"></path><path d="M98.16,338.8a.88.88,0,0,1-.18-.64V324a.86.86,0,0,1,.18-.64.75.75,0,0,1,.58-.2h6.6a.47.47,0,0,1,.45.24,1.54,1.54,0,0,1,.14.74v.58a1.54,1.54,0,0,1-.14.74.47.47,0,0,1-.45.23H101v3.94h3.89a.49.49,0,0,1,.45.23,1.58,1.58,0,0,1,.13.74v.59a1.53,1.53,0,0,1-.13.73.47.47,0,0,1-.45.24H101v4.29h4.38a.46.46,0,0,1,.43.23,1.51,1.51,0,0,1,.14.74V338a1.53,1.53,0,0,1-.14.75.46.46,0,0,1-.43.22H98.74A.75.75,0,0,1,98.16,338.8Z" style="fill: rgb(69, 90, 100); transform-origin: 101.964px 331.067px;" id="elcl72di8k80e" class="animable"></path><path d="M109.45,334a.52.52,0,0,1-.22-.47A5.6,5.6,0,0,1,110.7,330a4.48,4.48,0,0,1,.29-.37,12.86,12.86,0,0,0,1.12-1.41,1.94,1.94,0,0,0,.35-1.07A1.52,1.52,0,0,0,112,326a2,2,0,0,0-1.35-.4,3.46,3.46,0,0,0-1.72.54l-.23.11a.53.53,0,0,1-.22.07.74.74,0,0,1-.5-.31,3.29,3.29,0,0,1-.47-.7,1.4,1.4,0,0,1-.2-.62c0-.46.4-.85,1.19-1.16A6.9,6.9,0,0,1,111,323a5,5,0,0,1,3.28,1,3.42,3.42,0,0,1,1.22,2.76,3.75,3.75,0,0,1-.28,1.5,4.75,4.75,0,0,1-.66,1.14,14.71,14.71,0,0,1-1.07,1.2,13.18,13.18,0,0,0-1.28,1.49,3.51,3.51,0,0,0-.55,1.45.63.63,0,0,1-.3.44,1.65,1.65,0,0,1-.74.12h-.45A1.49,1.49,0,0,1,109.45,334Zm-.52,4.39v-1.87c0-.43.4-.64,1.2-.64h.59c.81,0,1.22.21,1.22.64v1.87c0,.44-.41.66-1.22.66h-.59Q108.93,339,108.93,338.38Z" style="fill: rgb(69, 90, 100); transform-origin: 111.406px 331.021px;" id="elpk89t9ayga" class="animable"></path></g></g><defs>     <filter id="active" height="200%">         <feMorphology in="SourceAlpha" result="DILATED" operator="dilate" radius="2"></feMorphology>                <feFlood flood-color="#32DFEC" flood-opacity="1" result="PINK"></feFlood>        <feComposite in="PINK" in2="DILATED" operator="in" result="OUTLINE"></feComposite>        <feMerge>            <feMergeNode in="OUTLINE"></feMergeNode>            <feMergeNode in="SourceGraphic"></feMergeNode>        </feMerge>    </filter>    <filter id="hover" height="200%">        <feMorphology in="SourceAlpha" result="DILATED" operator="dilate" radius="2"></feMorphology>                <feFlood flood-color="#ff0000" flood-opacity="0.5" result="PINK"></feFlood>        <feComposite in="PINK" in2="DILATED" operator="in" result="OUTLINE"></feComposite>        <feMerge>            <feMergeNode in="OUTLINE"></feMergeNode>            <feMergeNode in="SourceGraphic"></feMergeNode>        </feMerge>            <feColorMatrix type="matrix" values="0   0   0   0   0                0   1   0   0   0                0   0   0   0   0                0   0   0   1   0 "></feColorMatrix>    </filter></defs></svg>